G04 (created by PCBNEW-RS274X (2010-05-05 BZR 2356)-stable) date 29/03/2011 14:52:02*
G01*
G70*
G90*
%MOIN*%
G04 Gerber Fmt 3.4, Leading zero omitted, Abs format*
%FSLAX34Y34*%
G04 APERTURE LIST*
%ADD10C,0.006000*%
%ADD11C,0.015000*%
%ADD12R,0.150000X0.070000*%
%ADD13R,0.070000X0.094000*%
%ADD14R,0.075100X0.075100*%
%ADD15R,0.058000X0.070000*%
%ADD16R,0.067200X0.067200*%
%ADD17R,0.080000X0.080000*%
%ADD18C,0.080000*%
%ADD19R,0.075000X0.055000*%
%ADD20R,0.055000X0.075000*%
%ADD21R,0.075000X0.075000*%
%ADD22C,0.075000*%
%ADD23R,0.031800X0.051500*%
%ADD24R,0.236500X0.130200*%
G04 APERTURE END LIST*
G54D10*
G54D11*
X25550Y-22360D02*
X25600Y-22360D01*
X25550Y-37560D02*
X25550Y-22360D01*
X42400Y-37560D02*
X25550Y-37560D01*
X42400Y-22360D02*
X42400Y-37560D01*
X25500Y-22360D02*
X42400Y-22360D01*
G54D12*
X29120Y-24020D03*
X31120Y-24020D03*
G54D13*
X36380Y-23640D03*
X34180Y-23640D03*
X34180Y-24840D03*
X36380Y-24840D03*
G54D14*
X38378Y-33440D03*
X36882Y-33440D03*
G54D15*
X26950Y-23720D03*
X26450Y-23720D03*
X33690Y-25850D03*
X34190Y-25850D03*
X34690Y-25850D03*
G54D16*
X39097Y-30380D03*
X39923Y-30380D03*
X39933Y-31390D03*
X39107Y-31390D03*
X39973Y-27260D03*
X39147Y-27260D03*
X39147Y-28280D03*
X39973Y-28280D03*
G54D17*
X41170Y-31050D03*
G54D18*
X41170Y-32050D03*
G54D17*
X41190Y-28760D03*
G54D18*
X41190Y-27760D03*
X39590Y-25480D03*
X38590Y-24480D03*
X39590Y-23480D03*
G54D19*
X37400Y-29555D03*
X37400Y-30305D03*
G54D20*
X39135Y-29310D03*
X39885Y-29310D03*
G54D19*
X30875Y-30275D03*
X30875Y-31025D03*
X29225Y-30250D03*
X29225Y-31000D03*
X30075Y-30250D03*
X30075Y-31000D03*
G54D20*
X39095Y-26340D03*
X39845Y-26340D03*
X34535Y-26710D03*
X35285Y-26710D03*
X39105Y-32320D03*
X39855Y-32320D03*
X31295Y-28750D03*
X30545Y-28750D03*
X32785Y-27280D03*
X32035Y-27280D03*
X39125Y-34520D03*
X38375Y-34520D03*
G54D19*
X33130Y-24095D03*
X33130Y-24845D03*
X37410Y-24405D03*
X37410Y-23655D03*
G54D17*
X27470Y-27210D03*
G54D18*
X26470Y-27210D03*
X27470Y-26210D03*
X26470Y-26210D03*
X27470Y-25210D03*
X26470Y-25210D03*
G54D17*
X27475Y-36500D03*
G54D18*
X26475Y-36500D03*
X27475Y-35500D03*
X26475Y-35500D03*
X27475Y-34500D03*
X26475Y-34500D03*
X27475Y-33500D03*
X26475Y-33500D03*
X27475Y-32500D03*
X26475Y-32500D03*
X27475Y-31500D03*
X26475Y-31500D03*
X27475Y-30500D03*
X26475Y-30500D03*
X27475Y-29500D03*
X26475Y-29500D03*
G54D17*
X41330Y-24660D03*
G54D18*
X41330Y-25660D03*
G54D21*
X33890Y-34600D03*
G54D22*
X34890Y-34600D03*
X35890Y-34600D03*
X36890Y-34600D03*
G54D21*
X33890Y-36660D03*
G54D22*
X34890Y-36660D03*
X35890Y-36660D03*
X36890Y-36660D03*
G54D14*
X30480Y-27878D03*
X30480Y-26382D03*
X38378Y-35610D03*
X36882Y-35610D03*
X31310Y-26392D03*
X31310Y-27888D03*
G54D23*
X35673Y-28818D03*
X35417Y-28818D03*
X35161Y-28818D03*
X34905Y-28818D03*
X34650Y-28818D03*
X34394Y-28818D03*
X34138Y-28818D03*
X33882Y-28818D03*
X33626Y-28818D03*
X33370Y-28818D03*
X33114Y-28818D03*
X32858Y-28818D03*
X32602Y-28818D03*
X32346Y-28818D03*
X32346Y-31102D03*
X32602Y-31102D03*
X32858Y-31102D03*
X33114Y-31102D03*
X33370Y-31102D03*
X33626Y-31102D03*
X33882Y-31102D03*
X34138Y-31102D03*
X34394Y-31102D03*
X34650Y-31102D03*
X34905Y-31102D03*
X35161Y-31102D03*
X35417Y-31102D03*
X35673Y-31102D03*
G54D24*
X34000Y-30000D03*
M02*
