G04 (created by PCBNEW-RS274X (2010-05-05 BZR 2356)-stable) date 29/03/2011 14:52:02*
G01*
G70*
G90*
%MOIN*%
G04 Gerber Fmt 3.4, Leading zero omitted, Abs format*
%FSLAX34Y34*%
G04 APERTURE LIST*
%ADD10C,0.006000*%
%ADD11C,0.015000*%
%ADD12R,0.060000X0.060000*%
%ADD13C,0.060000*%
%ADD14R,0.055000X0.055000*%
%ADD15C,0.055000*%
%ADD16C,0.035000*%
%ADD17C,0.010000*%
G04 APERTURE END LIST*
G54D10*
G54D11*
X25550Y-22360D02*
X25600Y-22360D01*
X25550Y-37560D02*
X25550Y-22360D01*
X42400Y-37560D02*
X25550Y-37560D01*
X42400Y-22360D02*
X42400Y-37560D01*
X25500Y-22360D02*
X42400Y-22360D01*
G54D12*
X41170Y-31050D03*
G54D13*
X41170Y-32050D03*
G54D12*
X41190Y-28760D03*
G54D13*
X41190Y-27760D03*
X39590Y-25480D03*
X38590Y-24480D03*
X39590Y-23480D03*
G54D12*
X27470Y-27210D03*
G54D13*
X26470Y-27210D03*
X27470Y-26210D03*
X26470Y-26210D03*
X27470Y-25210D03*
X26470Y-25210D03*
G54D12*
X27475Y-36500D03*
G54D13*
X26475Y-36500D03*
X27475Y-35500D03*
X26475Y-35500D03*
X27475Y-34500D03*
X26475Y-34500D03*
X27475Y-33500D03*
X26475Y-33500D03*
X27475Y-32500D03*
X26475Y-32500D03*
X27475Y-31500D03*
X26475Y-31500D03*
X27475Y-30500D03*
X26475Y-30500D03*
X27475Y-29500D03*
X26475Y-29500D03*
G54D12*
X41330Y-24660D03*
G54D13*
X41330Y-25660D03*
G54D14*
X33890Y-34600D03*
G54D15*
X34890Y-34600D03*
X35890Y-34600D03*
X36890Y-34600D03*
G54D14*
X33890Y-36660D03*
G54D15*
X34890Y-36660D03*
X35890Y-36660D03*
X36890Y-36660D03*
G54D16*
X31720Y-31130D03*
X33060Y-25850D03*
X36600Y-28880D03*
X31910Y-28830D03*
X29535Y-31540D03*
X34290Y-33170D03*
X31190Y-31500D03*
X31140Y-33150D03*
X36680Y-31100D03*
X30600Y-31970D03*
X30570Y-32700D03*
X34500Y-32730D03*
X30110Y-33880D03*
X34850Y-33770D03*
X33470Y-33520D03*
X32950Y-32340D03*
X35400Y-32280D03*
X35550Y-27800D03*
X40130Y-34530D03*
X32270Y-28130D03*
X32330Y-24050D03*
X35900Y-26720D03*
X33430Y-26880D03*
X34000Y-30000D03*
X34700Y-27330D03*
X27850Y-23690D03*
X31230Y-34580D03*
X31900Y-31620D03*
X36510Y-28280D03*
X35850Y-32170D03*
X29810Y-28760D03*
X32860Y-28180D03*
G54D10*
G36*
X42125Y-37285D02*
X42125Y-22635D01*
X25825Y-22635D01*
X25825Y-37285D01*
X27125Y-37285D01*
X27125Y-37049D01*
X27034Y-37011D01*
X26964Y-36941D01*
X26926Y-36849D01*
X26926Y-36825D01*
X26786Y-36965D01*
X26584Y-37049D01*
X26366Y-37049D01*
X26164Y-36965D01*
X26010Y-36811D01*
X25926Y-36609D01*
X25926Y-36391D01*
X26010Y-36189D01*
X26164Y-36035D01*
X26248Y-36000D01*
X26164Y-35965D01*
X26010Y-35811D01*
X25926Y-35609D01*
X25926Y-35391D01*
X26010Y-35189D01*
X26164Y-35035D01*
X26248Y-35000D01*
X26164Y-34965D01*
X26010Y-34811D01*
X25926Y-34609D01*
X25926Y-34391D01*
X26010Y-34189D01*
X26164Y-34035D01*
X26248Y-34000D01*
X26164Y-33965D01*
X26010Y-33811D01*
X25926Y-33609D01*
X25926Y-33391D01*
X26010Y-33189D01*
X26164Y-33035D01*
X26248Y-33000D01*
X26164Y-32965D01*
X26010Y-32811D01*
X25926Y-32609D01*
X25926Y-32391D01*
X26010Y-32189D01*
X26164Y-32035D01*
X26248Y-32000D01*
X26164Y-31965D01*
X26010Y-31811D01*
X25926Y-31609D01*
X25926Y-31391D01*
X26010Y-31189D01*
X26164Y-31035D01*
X26248Y-31000D01*
X26164Y-30965D01*
X26010Y-30811D01*
X25926Y-30609D01*
X25926Y-30391D01*
X26010Y-30189D01*
X26164Y-30035D01*
X26248Y-30000D01*
X26164Y-29965D01*
X26010Y-29811D01*
X25926Y-29609D01*
X25926Y-29391D01*
X26010Y-29189D01*
X26164Y-29035D01*
X26366Y-28951D01*
X26584Y-28951D01*
X26786Y-29035D01*
X26940Y-29189D01*
X26975Y-29273D01*
X27010Y-29189D01*
X27120Y-29079D01*
X27120Y-27759D01*
X27029Y-27721D01*
X26959Y-27651D01*
X26921Y-27559D01*
X26921Y-27535D01*
X26781Y-27675D01*
X26579Y-27759D01*
X26361Y-27759D01*
X26159Y-27675D01*
X26005Y-27521D01*
X25921Y-27319D01*
X25921Y-27101D01*
X26005Y-26899D01*
X26092Y-26812D01*
X26092Y-26518D01*
X25998Y-26491D01*
X25938Y-26344D01*
X25927Y-26131D01*
X25998Y-25929D01*
X26092Y-25902D01*
X26361Y-26171D01*
X26399Y-26210D01*
X26361Y-26248D01*
X26092Y-26518D01*
X26092Y-26812D01*
X26159Y-26745D01*
X26254Y-26705D01*
X26189Y-26682D01*
X26162Y-26588D01*
X26361Y-26389D01*
X26470Y-26281D01*
X26470Y-26139D01*
X26361Y-26030D01*
X26162Y-25832D01*
X26189Y-25738D01*
X26250Y-25712D01*
X26159Y-25675D01*
X26005Y-25521D01*
X25921Y-25319D01*
X25921Y-25101D01*
X26005Y-24899D01*
X26159Y-24745D01*
X26361Y-24661D01*
X26579Y-24661D01*
X26781Y-24745D01*
X26935Y-24899D01*
X26974Y-24994D01*
X26998Y-24929D01*
X27092Y-24902D01*
X27399Y-25210D01*
X27092Y-25518D01*
X26998Y-25491D01*
X26972Y-25429D01*
X26935Y-25521D01*
X26781Y-25675D01*
X26685Y-25714D01*
X26751Y-25738D01*
X26778Y-25832D01*
X26470Y-26139D01*
X26470Y-26281D01*
X26778Y-26588D01*
X26751Y-26682D01*
X26689Y-26707D01*
X26781Y-26745D01*
X26921Y-26885D01*
X26921Y-26860D01*
X26959Y-26769D01*
X27029Y-26699D01*
X27121Y-26661D01*
X27145Y-26661D01*
X27005Y-26521D01*
X26965Y-26425D01*
X26942Y-26491D01*
X26848Y-26518D01*
X26541Y-26210D01*
X26848Y-25902D01*
X26942Y-25929D01*
X26967Y-25990D01*
X27005Y-25899D01*
X27159Y-25745D01*
X27254Y-25705D01*
X27189Y-25682D01*
X27162Y-25588D01*
X27470Y-25281D01*
X27470Y-25139D01*
X27162Y-24832D01*
X27189Y-24738D01*
X27336Y-24678D01*
X27549Y-24667D01*
X27751Y-24738D01*
X27765Y-24786D01*
X27765Y-24115D01*
X27609Y-24050D01*
X27489Y-23930D01*
X27425Y-23774D01*
X27425Y-23605D01*
X27490Y-23449D01*
X27610Y-23329D01*
X27766Y-23265D01*
X27935Y-23265D01*
X28091Y-23330D01*
X28211Y-23450D01*
X28275Y-23606D01*
X28275Y-23775D01*
X28210Y-23931D01*
X28090Y-24051D01*
X27934Y-24115D01*
X27765Y-24115D01*
X27765Y-24786D01*
X27778Y-24832D01*
X27765Y-24844D01*
X27470Y-25139D01*
X27470Y-25281D01*
X27765Y-25575D01*
X27778Y-25588D01*
X27765Y-25633D01*
X27751Y-25682D01*
X27689Y-25706D01*
X27765Y-25738D01*
X27781Y-25745D01*
X27848Y-25812D01*
X27848Y-25518D01*
X27765Y-25434D01*
X27541Y-25210D01*
X27765Y-24985D01*
X27848Y-24902D01*
X27942Y-24929D01*
X28002Y-25076D01*
X28013Y-25289D01*
X27942Y-25491D01*
X27848Y-25518D01*
X27848Y-25812D01*
X27935Y-25899D01*
X28019Y-26101D01*
X28019Y-26319D01*
X27935Y-26521D01*
X27794Y-26661D01*
X27820Y-26661D01*
X27911Y-26699D01*
X27981Y-26769D01*
X28019Y-26861D01*
X28019Y-27560D01*
X27981Y-27651D01*
X27911Y-27721D01*
X27819Y-27759D01*
X27120Y-27759D01*
X27120Y-29079D01*
X27164Y-29035D01*
X27366Y-28951D01*
X27584Y-28951D01*
X27786Y-29035D01*
X27940Y-29189D01*
X28024Y-29391D01*
X28024Y-29609D01*
X27940Y-29811D01*
X27786Y-29965D01*
X27701Y-30000D01*
X27786Y-30035D01*
X27940Y-30189D01*
X28024Y-30391D01*
X28024Y-30609D01*
X27940Y-30811D01*
X27786Y-30965D01*
X27701Y-31000D01*
X27786Y-31035D01*
X27940Y-31189D01*
X28024Y-31391D01*
X28024Y-31609D01*
X27940Y-31811D01*
X27786Y-31965D01*
X27701Y-32000D01*
X27786Y-32035D01*
X27940Y-32189D01*
X28024Y-32391D01*
X28024Y-32609D01*
X27940Y-32811D01*
X27786Y-32965D01*
X27701Y-33000D01*
X27786Y-33035D01*
X27940Y-33189D01*
X28024Y-33391D01*
X28024Y-33609D01*
X27940Y-33811D01*
X27786Y-33965D01*
X27701Y-34000D01*
X27786Y-34035D01*
X27940Y-34189D01*
X28024Y-34391D01*
X28024Y-34609D01*
X27940Y-34811D01*
X27786Y-34965D01*
X27701Y-35000D01*
X27786Y-35035D01*
X27940Y-35189D01*
X28024Y-35391D01*
X28024Y-35609D01*
X27940Y-35811D01*
X27800Y-35951D01*
X27825Y-35951D01*
X27916Y-35989D01*
X27986Y-36059D01*
X28024Y-36151D01*
X28024Y-36850D01*
X27986Y-36941D01*
X27916Y-37011D01*
X27824Y-37049D01*
X27125Y-37049D01*
X27125Y-37285D01*
X29450Y-37285D01*
X29450Y-31965D01*
X29294Y-31900D01*
X29174Y-31780D01*
X29110Y-31624D01*
X29110Y-31455D01*
X29175Y-31299D01*
X29295Y-31179D01*
X29451Y-31115D01*
X29620Y-31115D01*
X29725Y-31158D01*
X29725Y-29185D01*
X29569Y-29120D01*
X29449Y-29000D01*
X29385Y-28844D01*
X29385Y-28675D01*
X29450Y-28519D01*
X29570Y-28399D01*
X29726Y-28335D01*
X29895Y-28335D01*
X30051Y-28400D01*
X30171Y-28520D01*
X30235Y-28676D01*
X30235Y-28845D01*
X30170Y-29001D01*
X30050Y-29121D01*
X29894Y-29185D01*
X29725Y-29185D01*
X29725Y-31158D01*
X29776Y-31180D01*
X29896Y-31300D01*
X29960Y-31456D01*
X29960Y-31625D01*
X29895Y-31781D01*
X29775Y-31901D01*
X29619Y-31965D01*
X29450Y-31965D01*
X29450Y-37285D01*
X30025Y-37285D01*
X30025Y-34305D01*
X29869Y-34240D01*
X29749Y-34120D01*
X29685Y-33964D01*
X29685Y-33795D01*
X29750Y-33639D01*
X29870Y-33519D01*
X30026Y-33455D01*
X30195Y-33455D01*
X30351Y-33520D01*
X30471Y-33640D01*
X30535Y-33796D01*
X30535Y-33965D01*
X30470Y-34121D01*
X30350Y-34241D01*
X30194Y-34305D01*
X30025Y-34305D01*
X30025Y-37285D01*
X31145Y-37285D01*
X31145Y-35005D01*
X30989Y-34940D01*
X30869Y-34820D01*
X30805Y-34664D01*
X30805Y-34495D01*
X30870Y-34339D01*
X30990Y-34219D01*
X31055Y-34192D01*
X31055Y-33575D01*
X30899Y-33510D01*
X30779Y-33390D01*
X30715Y-33234D01*
X30715Y-33099D01*
X30654Y-33125D01*
X30485Y-33125D01*
X30329Y-33060D01*
X30209Y-32940D01*
X30145Y-32784D01*
X30145Y-32615D01*
X30210Y-32459D01*
X30330Y-32339D01*
X30356Y-32327D01*
X30239Y-32210D01*
X30175Y-32054D01*
X30175Y-31885D01*
X30240Y-31729D01*
X30360Y-31609D01*
X30516Y-31545D01*
X30685Y-31545D01*
X30765Y-31578D01*
X30765Y-31415D01*
X30830Y-31259D01*
X30950Y-31139D01*
X31106Y-31075D01*
X31275Y-31075D01*
X31295Y-31083D01*
X31295Y-31045D01*
X31360Y-30889D01*
X31480Y-30769D01*
X31636Y-30705D01*
X31805Y-30705D01*
X31825Y-30713D01*
X31825Y-29255D01*
X31669Y-29190D01*
X31549Y-29070D01*
X31485Y-28914D01*
X31485Y-28745D01*
X31550Y-28589D01*
X31670Y-28469D01*
X31826Y-28405D01*
X31995Y-28405D01*
X32151Y-28470D01*
X32271Y-28590D01*
X32335Y-28746D01*
X32335Y-28915D01*
X32270Y-29071D01*
X32150Y-29191D01*
X31994Y-29255D01*
X31825Y-29255D01*
X31825Y-30713D01*
X31961Y-30770D01*
X32081Y-30890D01*
X32145Y-31046D01*
X32145Y-31215D01*
X32128Y-31254D01*
X32141Y-31260D01*
X32261Y-31380D01*
X32325Y-31536D01*
X32325Y-31705D01*
X32260Y-31861D01*
X32140Y-31981D01*
X31984Y-32045D01*
X31815Y-32045D01*
X31659Y-31980D01*
X31539Y-31860D01*
X31507Y-31783D01*
X31430Y-31861D01*
X31274Y-31925D01*
X31105Y-31925D01*
X31025Y-31891D01*
X31025Y-32055D01*
X30960Y-32211D01*
X30840Y-32331D01*
X30813Y-32342D01*
X30931Y-32460D01*
X30995Y-32616D01*
X30995Y-32750D01*
X31056Y-32725D01*
X31225Y-32725D01*
X31381Y-32790D01*
X31501Y-32910D01*
X31565Y-33066D01*
X31565Y-33235D01*
X31500Y-33391D01*
X31380Y-33511D01*
X31224Y-33575D01*
X31055Y-33575D01*
X31055Y-34192D01*
X31146Y-34155D01*
X31315Y-34155D01*
X31471Y-34220D01*
X31591Y-34340D01*
X31655Y-34496D01*
X31655Y-34665D01*
X31590Y-34821D01*
X31470Y-34941D01*
X31314Y-35005D01*
X31145Y-35005D01*
X31145Y-37285D01*
X32865Y-37285D01*
X32865Y-32765D01*
X32709Y-32700D01*
X32589Y-32580D01*
X32525Y-32424D01*
X32525Y-32255D01*
X32590Y-32099D01*
X32710Y-31979D01*
X32775Y-31952D01*
X32775Y-28605D01*
X32619Y-28540D01*
X32499Y-28420D01*
X32435Y-28264D01*
X32435Y-28095D01*
X32500Y-27939D01*
X32620Y-27819D01*
X32776Y-27755D01*
X32945Y-27755D01*
X32975Y-27767D01*
X32975Y-26275D01*
X32819Y-26210D01*
X32699Y-26090D01*
X32635Y-25934D01*
X32635Y-25765D01*
X32700Y-25609D01*
X32820Y-25489D01*
X32976Y-25425D01*
X33145Y-25425D01*
X33301Y-25490D01*
X33421Y-25610D01*
X33485Y-25766D01*
X33485Y-25935D01*
X33420Y-26091D01*
X33300Y-26211D01*
X33144Y-26275D01*
X32975Y-26275D01*
X32975Y-27767D01*
X33101Y-27820D01*
X33221Y-27940D01*
X33285Y-28096D01*
X33285Y-28265D01*
X33220Y-28421D01*
X33100Y-28541D01*
X32944Y-28605D01*
X32775Y-28605D01*
X32775Y-31952D01*
X32866Y-31915D01*
X33035Y-31915D01*
X33191Y-31980D01*
X33311Y-32100D01*
X33375Y-32256D01*
X33375Y-32425D01*
X33310Y-32581D01*
X33190Y-32701D01*
X33034Y-32765D01*
X32865Y-32765D01*
X32865Y-37285D01*
X36785Y-37285D01*
X36785Y-37185D01*
X36592Y-37105D01*
X36445Y-36957D01*
X36390Y-36824D01*
X36335Y-36958D01*
X36187Y-37105D01*
X35994Y-37185D01*
X35785Y-37185D01*
X35592Y-37105D01*
X35445Y-36957D01*
X35390Y-36824D01*
X35335Y-36958D01*
X35187Y-37105D01*
X34994Y-37185D01*
X34785Y-37185D01*
X34592Y-37105D01*
X34445Y-36957D01*
X34414Y-36882D01*
X34414Y-36985D01*
X34376Y-37076D01*
X34306Y-37146D01*
X34214Y-37184D01*
X33565Y-37184D01*
X33474Y-37146D01*
X33404Y-37076D01*
X33366Y-36984D01*
X33366Y-36335D01*
X33404Y-36244D01*
X33474Y-36174D01*
X33566Y-36136D01*
X34215Y-36136D01*
X34306Y-36174D01*
X34376Y-36244D01*
X34414Y-36336D01*
X34414Y-36436D01*
X34445Y-36362D01*
X34593Y-36215D01*
X34786Y-36135D01*
X34995Y-36135D01*
X35188Y-36215D01*
X35335Y-36363D01*
X35389Y-36495D01*
X35445Y-36362D01*
X35593Y-36215D01*
X35786Y-36135D01*
X35995Y-36135D01*
X36188Y-36215D01*
X36335Y-36363D01*
X36389Y-36495D01*
X36445Y-36362D01*
X36593Y-36215D01*
X36785Y-36135D01*
X36785Y-35125D01*
X36592Y-35045D01*
X36445Y-34897D01*
X36390Y-34764D01*
X36335Y-34898D01*
X36187Y-35045D01*
X35994Y-35125D01*
X35785Y-35125D01*
X35592Y-35045D01*
X35445Y-34897D01*
X35390Y-34764D01*
X35335Y-34898D01*
X35187Y-35045D01*
X34994Y-35125D01*
X34785Y-35125D01*
X34592Y-35045D01*
X34445Y-34897D01*
X34414Y-34822D01*
X34414Y-34925D01*
X34376Y-35016D01*
X34306Y-35086D01*
X34214Y-35124D01*
X33565Y-35124D01*
X33474Y-35086D01*
X33404Y-35016D01*
X33366Y-34924D01*
X33366Y-34275D01*
X33385Y-34229D01*
X33385Y-33945D01*
X33229Y-33880D01*
X33109Y-33760D01*
X33045Y-33604D01*
X33045Y-33435D01*
X33110Y-33279D01*
X33230Y-33159D01*
X33386Y-33095D01*
X33555Y-33095D01*
X33711Y-33160D01*
X33831Y-33280D01*
X33895Y-33436D01*
X33895Y-33605D01*
X33830Y-33761D01*
X33710Y-33881D01*
X33554Y-33945D01*
X33385Y-33945D01*
X33385Y-34229D01*
X33404Y-34184D01*
X33474Y-34114D01*
X33566Y-34076D01*
X34215Y-34076D01*
X34306Y-34114D01*
X34376Y-34184D01*
X34414Y-34276D01*
X34414Y-34376D01*
X34445Y-34302D01*
X34593Y-34155D01*
X34631Y-34139D01*
X34609Y-34130D01*
X34489Y-34010D01*
X34425Y-33854D01*
X34425Y-33685D01*
X34480Y-33551D01*
X34374Y-33595D01*
X34205Y-33595D01*
X34049Y-33530D01*
X33929Y-33410D01*
X33865Y-33254D01*
X33865Y-33085D01*
X33930Y-32929D01*
X34050Y-32809D01*
X34075Y-32798D01*
X34075Y-32645D01*
X34140Y-32489D01*
X34260Y-32369D01*
X34416Y-32305D01*
X34585Y-32305D01*
X34615Y-32317D01*
X34615Y-27755D01*
X34459Y-27690D01*
X34339Y-27570D01*
X34275Y-27414D01*
X34275Y-27245D01*
X34340Y-27089D01*
X34460Y-26969D01*
X34616Y-26905D01*
X34785Y-26905D01*
X34941Y-26970D01*
X35061Y-27090D01*
X35125Y-27246D01*
X35125Y-27415D01*
X35060Y-27571D01*
X34940Y-27691D01*
X34784Y-27755D01*
X34615Y-27755D01*
X34615Y-32317D01*
X34741Y-32370D01*
X34861Y-32490D01*
X34925Y-32646D01*
X34925Y-32815D01*
X34860Y-32971D01*
X34740Y-33091D01*
X34715Y-33101D01*
X34715Y-33255D01*
X34659Y-33388D01*
X34766Y-33345D01*
X34935Y-33345D01*
X35091Y-33410D01*
X35211Y-33530D01*
X35275Y-33686D01*
X35275Y-33855D01*
X35210Y-34011D01*
X35101Y-34119D01*
X35188Y-34155D01*
X35315Y-34282D01*
X35315Y-32705D01*
X35159Y-32640D01*
X35039Y-32520D01*
X34975Y-32364D01*
X34975Y-32195D01*
X35040Y-32039D01*
X35160Y-31919D01*
X35316Y-31855D01*
X35465Y-31855D01*
X35465Y-28225D01*
X35309Y-28160D01*
X35189Y-28040D01*
X35125Y-27884D01*
X35125Y-27715D01*
X35190Y-27559D01*
X35310Y-27439D01*
X35466Y-27375D01*
X35635Y-27375D01*
X35791Y-27440D01*
X35911Y-27560D01*
X35975Y-27716D01*
X35975Y-27885D01*
X35910Y-28041D01*
X35790Y-28161D01*
X35634Y-28225D01*
X35465Y-28225D01*
X35465Y-31855D01*
X35485Y-31855D01*
X35540Y-31878D01*
X35610Y-31809D01*
X35766Y-31745D01*
X35935Y-31745D01*
X36091Y-31810D01*
X36211Y-31930D01*
X36275Y-32086D01*
X36275Y-32255D01*
X36210Y-32411D01*
X36090Y-32531D01*
X35934Y-32595D01*
X35765Y-32595D01*
X35709Y-32571D01*
X35640Y-32641D01*
X35484Y-32705D01*
X35315Y-32705D01*
X35315Y-34282D01*
X35335Y-34303D01*
X35389Y-34435D01*
X35445Y-34302D01*
X35593Y-34155D01*
X35786Y-34075D01*
X35995Y-34075D01*
X36188Y-34155D01*
X36335Y-34303D01*
X36389Y-34435D01*
X36445Y-34302D01*
X36593Y-34155D01*
X36595Y-34154D01*
X36595Y-31525D01*
X36439Y-31460D01*
X36319Y-31340D01*
X36255Y-31184D01*
X36255Y-31015D01*
X36320Y-30859D01*
X36440Y-30739D01*
X36515Y-30708D01*
X36515Y-29305D01*
X36359Y-29240D01*
X36239Y-29120D01*
X36175Y-28964D01*
X36175Y-28795D01*
X36240Y-28639D01*
X36254Y-28625D01*
X36149Y-28520D01*
X36085Y-28364D01*
X36085Y-28195D01*
X36150Y-28039D01*
X36270Y-27919D01*
X36426Y-27855D01*
X36595Y-27855D01*
X36751Y-27920D01*
X36871Y-28040D01*
X36935Y-28196D01*
X36935Y-28365D01*
X36870Y-28521D01*
X36856Y-28535D01*
X36961Y-28640D01*
X37025Y-28796D01*
X37025Y-28965D01*
X36960Y-29121D01*
X36840Y-29241D01*
X36684Y-29305D01*
X36515Y-29305D01*
X36515Y-30708D01*
X36596Y-30675D01*
X36765Y-30675D01*
X36921Y-30740D01*
X37041Y-30860D01*
X37105Y-31016D01*
X37105Y-31185D01*
X37040Y-31341D01*
X36920Y-31461D01*
X36764Y-31525D01*
X36595Y-31525D01*
X36595Y-34154D01*
X36786Y-34075D01*
X36995Y-34075D01*
X37188Y-34155D01*
X37335Y-34303D01*
X37415Y-34496D01*
X37415Y-34705D01*
X37335Y-34898D01*
X37187Y-35045D01*
X36994Y-35125D01*
X36785Y-35125D01*
X36785Y-36135D01*
X36995Y-36135D01*
X37188Y-36215D01*
X37335Y-36363D01*
X37415Y-36556D01*
X37415Y-36765D01*
X37335Y-36958D01*
X37187Y-37105D01*
X36994Y-37185D01*
X36785Y-37185D01*
X36785Y-37285D01*
X38481Y-37285D01*
X38481Y-25029D01*
X38279Y-24945D01*
X38125Y-24791D01*
X38041Y-24589D01*
X38041Y-24371D01*
X38125Y-24169D01*
X38279Y-24015D01*
X38481Y-23931D01*
X38699Y-23931D01*
X38901Y-24015D01*
X39055Y-24169D01*
X39139Y-24371D01*
X39139Y-24589D01*
X39055Y-24791D01*
X38901Y-24945D01*
X38699Y-25029D01*
X38481Y-25029D01*
X38481Y-37285D01*
X39481Y-37285D01*
X39481Y-26029D01*
X39279Y-25945D01*
X39125Y-25791D01*
X39041Y-25589D01*
X39041Y-25371D01*
X39125Y-25169D01*
X39212Y-25082D01*
X39212Y-23788D01*
X39118Y-23761D01*
X39058Y-23614D01*
X39047Y-23401D01*
X39118Y-23199D01*
X39212Y-23172D01*
X39519Y-23480D01*
X39212Y-23788D01*
X39212Y-25082D01*
X39279Y-25015D01*
X39481Y-24931D01*
X39511Y-24931D01*
X39511Y-24023D01*
X39309Y-23952D01*
X39282Y-23858D01*
X39590Y-23551D01*
X39590Y-23409D01*
X39282Y-23102D01*
X39309Y-23008D01*
X39456Y-22948D01*
X39669Y-22937D01*
X39871Y-23008D01*
X39898Y-23102D01*
X39590Y-23409D01*
X39590Y-23551D01*
X39898Y-23858D01*
X39871Y-23952D01*
X39724Y-24012D01*
X39511Y-24023D01*
X39511Y-24931D01*
X39699Y-24931D01*
X39901Y-25015D01*
X39968Y-25082D01*
X39968Y-23788D01*
X39661Y-23480D01*
X39968Y-23172D01*
X40062Y-23199D01*
X40122Y-23346D01*
X40133Y-23559D01*
X40062Y-23761D01*
X39968Y-23788D01*
X39968Y-25082D01*
X40055Y-25169D01*
X40139Y-25371D01*
X40139Y-25589D01*
X40055Y-25791D01*
X39901Y-25945D01*
X39699Y-26029D01*
X39481Y-26029D01*
X39481Y-37285D01*
X41061Y-37285D01*
X41061Y-32599D01*
X40859Y-32515D01*
X40705Y-32361D01*
X40621Y-32159D01*
X40621Y-31941D01*
X40705Y-31739D01*
X40844Y-31599D01*
X40820Y-31599D01*
X40729Y-31561D01*
X40659Y-31491D01*
X40621Y-31399D01*
X40621Y-30700D01*
X40659Y-30609D01*
X40729Y-30539D01*
X40821Y-30501D01*
X40840Y-30501D01*
X40840Y-29309D01*
X40749Y-29271D01*
X40679Y-29201D01*
X40641Y-29109D01*
X40641Y-28410D01*
X40679Y-28319D01*
X40749Y-28249D01*
X40841Y-28211D01*
X40865Y-28211D01*
X40725Y-28071D01*
X40641Y-27869D01*
X40641Y-27651D01*
X40725Y-27449D01*
X40879Y-27295D01*
X40952Y-27264D01*
X40952Y-25968D01*
X40858Y-25941D01*
X40798Y-25794D01*
X40787Y-25581D01*
X40858Y-25379D01*
X40952Y-25352D01*
X40980Y-25380D01*
X41259Y-25660D01*
X40980Y-25939D01*
X40952Y-25968D01*
X40952Y-27264D01*
X40980Y-27253D01*
X41081Y-27211D01*
X41251Y-27211D01*
X41251Y-26203D01*
X41049Y-26132D01*
X41022Y-26038D01*
X41330Y-25731D01*
X41330Y-25589D01*
X41022Y-25282D01*
X41042Y-25209D01*
X40980Y-25209D01*
X40889Y-25171D01*
X40819Y-25101D01*
X40781Y-25009D01*
X40781Y-24310D01*
X40819Y-24219D01*
X40889Y-24149D01*
X40981Y-24111D01*
X41680Y-24111D01*
X41771Y-24149D01*
X41841Y-24219D01*
X41879Y-24311D01*
X41879Y-25010D01*
X41841Y-25101D01*
X41771Y-25171D01*
X41679Y-25209D01*
X41617Y-25209D01*
X41638Y-25282D01*
X41330Y-25589D01*
X41330Y-25731D01*
X41638Y-26038D01*
X41611Y-26132D01*
X41464Y-26192D01*
X41251Y-26203D01*
X41251Y-27211D01*
X41299Y-27211D01*
X41501Y-27295D01*
X41655Y-27449D01*
X41708Y-27576D01*
X41708Y-25968D01*
X41401Y-25660D01*
X41708Y-25352D01*
X41802Y-25379D01*
X41862Y-25526D01*
X41873Y-25739D01*
X41802Y-25941D01*
X41708Y-25968D01*
X41708Y-27576D01*
X41739Y-27651D01*
X41739Y-27869D01*
X41655Y-28071D01*
X41515Y-28211D01*
X41540Y-28211D01*
X41631Y-28249D01*
X41701Y-28319D01*
X41739Y-28411D01*
X41739Y-29110D01*
X41701Y-29201D01*
X41631Y-29271D01*
X41539Y-29309D01*
X40840Y-29309D01*
X40840Y-30501D01*
X41520Y-30501D01*
X41611Y-30539D01*
X41681Y-30609D01*
X41719Y-30701D01*
X41719Y-31400D01*
X41681Y-31491D01*
X41611Y-31561D01*
X41519Y-31599D01*
X41495Y-31599D01*
X41635Y-31739D01*
X41719Y-31941D01*
X41719Y-32159D01*
X41635Y-32361D01*
X41481Y-32515D01*
X41279Y-32599D01*
X41061Y-32599D01*
X41061Y-37285D01*
X42125Y-37285D01*
X42125Y-37285D01*
G37*
G54D17*
X42125Y-37285D02*
X42125Y-22635D01*
X25825Y-22635D01*
X25825Y-37285D01*
X27125Y-37285D01*
X27125Y-37049D01*
X27034Y-37011D01*
X26964Y-36941D01*
X26926Y-36849D01*
X26926Y-36825D01*
X26786Y-36965D01*
X26584Y-37049D01*
X26366Y-37049D01*
X26164Y-36965D01*
X26010Y-36811D01*
X25926Y-36609D01*
X25926Y-36391D01*
X26010Y-36189D01*
X26164Y-36035D01*
X26248Y-36000D01*
X26164Y-35965D01*
X26010Y-35811D01*
X25926Y-35609D01*
X25926Y-35391D01*
X26010Y-35189D01*
X26164Y-35035D01*
X26248Y-35000D01*
X26164Y-34965D01*
X26010Y-34811D01*
X25926Y-34609D01*
X25926Y-34391D01*
X26010Y-34189D01*
X26164Y-34035D01*
X26248Y-34000D01*
X26164Y-33965D01*
X26010Y-33811D01*
X25926Y-33609D01*
X25926Y-33391D01*
X26010Y-33189D01*
X26164Y-33035D01*
X26248Y-33000D01*
X26164Y-32965D01*
X26010Y-32811D01*
X25926Y-32609D01*
X25926Y-32391D01*
X26010Y-32189D01*
X26164Y-32035D01*
X26248Y-32000D01*
X26164Y-31965D01*
X26010Y-31811D01*
X25926Y-31609D01*
X25926Y-31391D01*
X26010Y-31189D01*
X26164Y-31035D01*
X26248Y-31000D01*
X26164Y-30965D01*
X26010Y-30811D01*
X25926Y-30609D01*
X25926Y-30391D01*
X26010Y-30189D01*
X26164Y-30035D01*
X26248Y-30000D01*
X26164Y-29965D01*
X26010Y-29811D01*
X25926Y-29609D01*
X25926Y-29391D01*
X26010Y-29189D01*
X26164Y-29035D01*
X26366Y-28951D01*
X26584Y-28951D01*
X26786Y-29035D01*
X26940Y-29189D01*
X26975Y-29273D01*
X27010Y-29189D01*
X27120Y-29079D01*
X27120Y-27759D01*
X27029Y-27721D01*
X26959Y-27651D01*
X26921Y-27559D01*
X26921Y-27535D01*
X26781Y-27675D01*
X26579Y-27759D01*
X26361Y-27759D01*
X26159Y-27675D01*
X26005Y-27521D01*
X25921Y-27319D01*
X25921Y-27101D01*
X26005Y-26899D01*
X26092Y-26812D01*
X26092Y-26518D01*
X25998Y-26491D01*
X25938Y-26344D01*
X25927Y-26131D01*
X25998Y-25929D01*
X26092Y-25902D01*
X26361Y-26171D01*
X26399Y-26210D01*
X26361Y-26248D01*
X26092Y-26518D01*
X26092Y-26812D01*
X26159Y-26745D01*
X26254Y-26705D01*
X26189Y-26682D01*
X26162Y-26588D01*
X26361Y-26389D01*
X26470Y-26281D01*
X26470Y-26139D01*
X26361Y-26030D01*
X26162Y-25832D01*
X26189Y-25738D01*
X26250Y-25712D01*
X26159Y-25675D01*
X26005Y-25521D01*
X25921Y-25319D01*
X25921Y-25101D01*
X26005Y-24899D01*
X26159Y-24745D01*
X26361Y-24661D01*
X26579Y-24661D01*
X26781Y-24745D01*
X26935Y-24899D01*
X26974Y-24994D01*
X26998Y-24929D01*
X27092Y-24902D01*
X27399Y-25210D01*
X27092Y-25518D01*
X26998Y-25491D01*
X26972Y-25429D01*
X26935Y-25521D01*
X26781Y-25675D01*
X26685Y-25714D01*
X26751Y-25738D01*
X26778Y-25832D01*
X26470Y-26139D01*
X26470Y-26281D01*
X26778Y-26588D01*
X26751Y-26682D01*
X26689Y-26707D01*
X26781Y-26745D01*
X26921Y-26885D01*
X26921Y-26860D01*
X26959Y-26769D01*
X27029Y-26699D01*
X27121Y-26661D01*
X27145Y-26661D01*
X27005Y-26521D01*
X26965Y-26425D01*
X26942Y-26491D01*
X26848Y-26518D01*
X26541Y-26210D01*
X26848Y-25902D01*
X26942Y-25929D01*
X26967Y-25990D01*
X27005Y-25899D01*
X27159Y-25745D01*
X27254Y-25705D01*
X27189Y-25682D01*
X27162Y-25588D01*
X27470Y-25281D01*
X27470Y-25139D01*
X27162Y-24832D01*
X27189Y-24738D01*
X27336Y-24678D01*
X27549Y-24667D01*
X27751Y-24738D01*
X27765Y-24786D01*
X27765Y-24115D01*
X27609Y-24050D01*
X27489Y-23930D01*
X27425Y-23774D01*
X27425Y-23605D01*
X27490Y-23449D01*
X27610Y-23329D01*
X27766Y-23265D01*
X27935Y-23265D01*
X28091Y-23330D01*
X28211Y-23450D01*
X28275Y-23606D01*
X28275Y-23775D01*
X28210Y-23931D01*
X28090Y-24051D01*
X27934Y-24115D01*
X27765Y-24115D01*
X27765Y-24786D01*
X27778Y-24832D01*
X27765Y-24844D01*
X27470Y-25139D01*
X27470Y-25281D01*
X27765Y-25575D01*
X27778Y-25588D01*
X27765Y-25633D01*
X27751Y-25682D01*
X27689Y-25706D01*
X27765Y-25738D01*
X27781Y-25745D01*
X27848Y-25812D01*
X27848Y-25518D01*
X27765Y-25434D01*
X27541Y-25210D01*
X27765Y-24985D01*
X27848Y-24902D01*
X27942Y-24929D01*
X28002Y-25076D01*
X28013Y-25289D01*
X27942Y-25491D01*
X27848Y-25518D01*
X27848Y-25812D01*
X27935Y-25899D01*
X28019Y-26101D01*
X28019Y-26319D01*
X27935Y-26521D01*
X27794Y-26661D01*
X27820Y-26661D01*
X27911Y-26699D01*
X27981Y-26769D01*
X28019Y-26861D01*
X28019Y-27560D01*
X27981Y-27651D01*
X27911Y-27721D01*
X27819Y-27759D01*
X27120Y-27759D01*
X27120Y-29079D01*
X27164Y-29035D01*
X27366Y-28951D01*
X27584Y-28951D01*
X27786Y-29035D01*
X27940Y-29189D01*
X28024Y-29391D01*
X28024Y-29609D01*
X27940Y-29811D01*
X27786Y-29965D01*
X27701Y-30000D01*
X27786Y-30035D01*
X27940Y-30189D01*
X28024Y-30391D01*
X28024Y-30609D01*
X27940Y-30811D01*
X27786Y-30965D01*
X27701Y-31000D01*
X27786Y-31035D01*
X27940Y-31189D01*
X28024Y-31391D01*
X28024Y-31609D01*
X27940Y-31811D01*
X27786Y-31965D01*
X27701Y-32000D01*
X27786Y-32035D01*
X27940Y-32189D01*
X28024Y-32391D01*
X28024Y-32609D01*
X27940Y-32811D01*
X27786Y-32965D01*
X27701Y-33000D01*
X27786Y-33035D01*
X27940Y-33189D01*
X28024Y-33391D01*
X28024Y-33609D01*
X27940Y-33811D01*
X27786Y-33965D01*
X27701Y-34000D01*
X27786Y-34035D01*
X27940Y-34189D01*
X28024Y-34391D01*
X28024Y-34609D01*
X27940Y-34811D01*
X27786Y-34965D01*
X27701Y-35000D01*
X27786Y-35035D01*
X27940Y-35189D01*
X28024Y-35391D01*
X28024Y-35609D01*
X27940Y-35811D01*
X27800Y-35951D01*
X27825Y-35951D01*
X27916Y-35989D01*
X27986Y-36059D01*
X28024Y-36151D01*
X28024Y-36850D01*
X27986Y-36941D01*
X27916Y-37011D01*
X27824Y-37049D01*
X27125Y-37049D01*
X27125Y-37285D01*
X29450Y-37285D01*
X29450Y-31965D01*
X29294Y-31900D01*
X29174Y-31780D01*
X29110Y-31624D01*
X29110Y-31455D01*
X29175Y-31299D01*
X29295Y-31179D01*
X29451Y-31115D01*
X29620Y-31115D01*
X29725Y-31158D01*
X29725Y-29185D01*
X29569Y-29120D01*
X29449Y-29000D01*
X29385Y-28844D01*
X29385Y-28675D01*
X29450Y-28519D01*
X29570Y-28399D01*
X29726Y-28335D01*
X29895Y-28335D01*
X30051Y-28400D01*
X30171Y-28520D01*
X30235Y-28676D01*
X30235Y-28845D01*
X30170Y-29001D01*
X30050Y-29121D01*
X29894Y-29185D01*
X29725Y-29185D01*
X29725Y-31158D01*
X29776Y-31180D01*
X29896Y-31300D01*
X29960Y-31456D01*
X29960Y-31625D01*
X29895Y-31781D01*
X29775Y-31901D01*
X29619Y-31965D01*
X29450Y-31965D01*
X29450Y-37285D01*
X30025Y-37285D01*
X30025Y-34305D01*
X29869Y-34240D01*
X29749Y-34120D01*
X29685Y-33964D01*
X29685Y-33795D01*
X29750Y-33639D01*
X29870Y-33519D01*
X30026Y-33455D01*
X30195Y-33455D01*
X30351Y-33520D01*
X30471Y-33640D01*
X30535Y-33796D01*
X30535Y-33965D01*
X30470Y-34121D01*
X30350Y-34241D01*
X30194Y-34305D01*
X30025Y-34305D01*
X30025Y-37285D01*
X31145Y-37285D01*
X31145Y-35005D01*
X30989Y-34940D01*
X30869Y-34820D01*
X30805Y-34664D01*
X30805Y-34495D01*
X30870Y-34339D01*
X30990Y-34219D01*
X31055Y-34192D01*
X31055Y-33575D01*
X30899Y-33510D01*
X30779Y-33390D01*
X30715Y-33234D01*
X30715Y-33099D01*
X30654Y-33125D01*
X30485Y-33125D01*
X30329Y-33060D01*
X30209Y-32940D01*
X30145Y-32784D01*
X30145Y-32615D01*
X30210Y-32459D01*
X30330Y-32339D01*
X30356Y-32327D01*
X30239Y-32210D01*
X30175Y-32054D01*
X30175Y-31885D01*
X30240Y-31729D01*
X30360Y-31609D01*
X30516Y-31545D01*
X30685Y-31545D01*
X30765Y-31578D01*
X30765Y-31415D01*
X30830Y-31259D01*
X30950Y-31139D01*
X31106Y-31075D01*
X31275Y-31075D01*
X31295Y-31083D01*
X31295Y-31045D01*
X31360Y-30889D01*
X31480Y-30769D01*
X31636Y-30705D01*
X31805Y-30705D01*
X31825Y-30713D01*
X31825Y-29255D01*
X31669Y-29190D01*
X31549Y-29070D01*
X31485Y-28914D01*
X31485Y-28745D01*
X31550Y-28589D01*
X31670Y-28469D01*
X31826Y-28405D01*
X31995Y-28405D01*
X32151Y-28470D01*
X32271Y-28590D01*
X32335Y-28746D01*
X32335Y-28915D01*
X32270Y-29071D01*
X32150Y-29191D01*
X31994Y-29255D01*
X31825Y-29255D01*
X31825Y-30713D01*
X31961Y-30770D01*
X32081Y-30890D01*
X32145Y-31046D01*
X32145Y-31215D01*
X32128Y-31254D01*
X32141Y-31260D01*
X32261Y-31380D01*
X32325Y-31536D01*
X32325Y-31705D01*
X32260Y-31861D01*
X32140Y-31981D01*
X31984Y-32045D01*
X31815Y-32045D01*
X31659Y-31980D01*
X31539Y-31860D01*
X31507Y-31783D01*
X31430Y-31861D01*
X31274Y-31925D01*
X31105Y-31925D01*
X31025Y-31891D01*
X31025Y-32055D01*
X30960Y-32211D01*
X30840Y-32331D01*
X30813Y-32342D01*
X30931Y-32460D01*
X30995Y-32616D01*
X30995Y-32750D01*
X31056Y-32725D01*
X31225Y-32725D01*
X31381Y-32790D01*
X31501Y-32910D01*
X31565Y-33066D01*
X31565Y-33235D01*
X31500Y-33391D01*
X31380Y-33511D01*
X31224Y-33575D01*
X31055Y-33575D01*
X31055Y-34192D01*
X31146Y-34155D01*
X31315Y-34155D01*
X31471Y-34220D01*
X31591Y-34340D01*
X31655Y-34496D01*
X31655Y-34665D01*
X31590Y-34821D01*
X31470Y-34941D01*
X31314Y-35005D01*
X31145Y-35005D01*
X31145Y-37285D01*
X32865Y-37285D01*
X32865Y-32765D01*
X32709Y-32700D01*
X32589Y-32580D01*
X32525Y-32424D01*
X32525Y-32255D01*
X32590Y-32099D01*
X32710Y-31979D01*
X32775Y-31952D01*
X32775Y-28605D01*
X32619Y-28540D01*
X32499Y-28420D01*
X32435Y-28264D01*
X32435Y-28095D01*
X32500Y-27939D01*
X32620Y-27819D01*
X32776Y-27755D01*
X32945Y-27755D01*
X32975Y-27767D01*
X32975Y-26275D01*
X32819Y-26210D01*
X32699Y-26090D01*
X32635Y-25934D01*
X32635Y-25765D01*
X32700Y-25609D01*
X32820Y-25489D01*
X32976Y-25425D01*
X33145Y-25425D01*
X33301Y-25490D01*
X33421Y-25610D01*
X33485Y-25766D01*
X33485Y-25935D01*
X33420Y-26091D01*
X33300Y-26211D01*
X33144Y-26275D01*
X32975Y-26275D01*
X32975Y-27767D01*
X33101Y-27820D01*
X33221Y-27940D01*
X33285Y-28096D01*
X33285Y-28265D01*
X33220Y-28421D01*
X33100Y-28541D01*
X32944Y-28605D01*
X32775Y-28605D01*
X32775Y-31952D01*
X32866Y-31915D01*
X33035Y-31915D01*
X33191Y-31980D01*
X33311Y-32100D01*
X33375Y-32256D01*
X33375Y-32425D01*
X33310Y-32581D01*
X33190Y-32701D01*
X33034Y-32765D01*
X32865Y-32765D01*
X32865Y-37285D01*
X36785Y-37285D01*
X36785Y-37185D01*
X36592Y-37105D01*
X36445Y-36957D01*
X36390Y-36824D01*
X36335Y-36958D01*
X36187Y-37105D01*
X35994Y-37185D01*
X35785Y-37185D01*
X35592Y-37105D01*
X35445Y-36957D01*
X35390Y-36824D01*
X35335Y-36958D01*
X35187Y-37105D01*
X34994Y-37185D01*
X34785Y-37185D01*
X34592Y-37105D01*
X34445Y-36957D01*
X34414Y-36882D01*
X34414Y-36985D01*
X34376Y-37076D01*
X34306Y-37146D01*
X34214Y-37184D01*
X33565Y-37184D01*
X33474Y-37146D01*
X33404Y-37076D01*
X33366Y-36984D01*
X33366Y-36335D01*
X33404Y-36244D01*
X33474Y-36174D01*
X33566Y-36136D01*
X34215Y-36136D01*
X34306Y-36174D01*
X34376Y-36244D01*
X34414Y-36336D01*
X34414Y-36436D01*
X34445Y-36362D01*
X34593Y-36215D01*
X34786Y-36135D01*
X34995Y-36135D01*
X35188Y-36215D01*
X35335Y-36363D01*
X35389Y-36495D01*
X35445Y-36362D01*
X35593Y-36215D01*
X35786Y-36135D01*
X35995Y-36135D01*
X36188Y-36215D01*
X36335Y-36363D01*
X36389Y-36495D01*
X36445Y-36362D01*
X36593Y-36215D01*
X36785Y-36135D01*
X36785Y-35125D01*
X36592Y-35045D01*
X36445Y-34897D01*
X36390Y-34764D01*
X36335Y-34898D01*
X36187Y-35045D01*
X35994Y-35125D01*
X35785Y-35125D01*
X35592Y-35045D01*
X35445Y-34897D01*
X35390Y-34764D01*
X35335Y-34898D01*
X35187Y-35045D01*
X34994Y-35125D01*
X34785Y-35125D01*
X34592Y-35045D01*
X34445Y-34897D01*
X34414Y-34822D01*
X34414Y-34925D01*
X34376Y-35016D01*
X34306Y-35086D01*
X34214Y-35124D01*
X33565Y-35124D01*
X33474Y-35086D01*
X33404Y-35016D01*
X33366Y-34924D01*
X33366Y-34275D01*
X33385Y-34229D01*
X33385Y-33945D01*
X33229Y-33880D01*
X33109Y-33760D01*
X33045Y-33604D01*
X33045Y-33435D01*
X33110Y-33279D01*
X33230Y-33159D01*
X33386Y-33095D01*
X33555Y-33095D01*
X33711Y-33160D01*
X33831Y-33280D01*
X33895Y-33436D01*
X33895Y-33605D01*
X33830Y-33761D01*
X33710Y-33881D01*
X33554Y-33945D01*
X33385Y-33945D01*
X33385Y-34229D01*
X33404Y-34184D01*
X33474Y-34114D01*
X33566Y-34076D01*
X34215Y-34076D01*
X34306Y-34114D01*
X34376Y-34184D01*
X34414Y-34276D01*
X34414Y-34376D01*
X34445Y-34302D01*
X34593Y-34155D01*
X34631Y-34139D01*
X34609Y-34130D01*
X34489Y-34010D01*
X34425Y-33854D01*
X34425Y-33685D01*
X34480Y-33551D01*
X34374Y-33595D01*
X34205Y-33595D01*
X34049Y-33530D01*
X33929Y-33410D01*
X33865Y-33254D01*
X33865Y-33085D01*
X33930Y-32929D01*
X34050Y-32809D01*
X34075Y-32798D01*
X34075Y-32645D01*
X34140Y-32489D01*
X34260Y-32369D01*
X34416Y-32305D01*
X34585Y-32305D01*
X34615Y-32317D01*
X34615Y-27755D01*
X34459Y-27690D01*
X34339Y-27570D01*
X34275Y-27414D01*
X34275Y-27245D01*
X34340Y-27089D01*
X34460Y-26969D01*
X34616Y-26905D01*
X34785Y-26905D01*
X34941Y-26970D01*
X35061Y-27090D01*
X35125Y-27246D01*
X35125Y-27415D01*
X35060Y-27571D01*
X34940Y-27691D01*
X34784Y-27755D01*
X34615Y-27755D01*
X34615Y-32317D01*
X34741Y-32370D01*
X34861Y-32490D01*
X34925Y-32646D01*
X34925Y-32815D01*
X34860Y-32971D01*
X34740Y-33091D01*
X34715Y-33101D01*
X34715Y-33255D01*
X34659Y-33388D01*
X34766Y-33345D01*
X34935Y-33345D01*
X35091Y-33410D01*
X35211Y-33530D01*
X35275Y-33686D01*
X35275Y-33855D01*
X35210Y-34011D01*
X35101Y-34119D01*
X35188Y-34155D01*
X35315Y-34282D01*
X35315Y-32705D01*
X35159Y-32640D01*
X35039Y-32520D01*
X34975Y-32364D01*
X34975Y-32195D01*
X35040Y-32039D01*
X35160Y-31919D01*
X35316Y-31855D01*
X35465Y-31855D01*
X35465Y-28225D01*
X35309Y-28160D01*
X35189Y-28040D01*
X35125Y-27884D01*
X35125Y-27715D01*
X35190Y-27559D01*
X35310Y-27439D01*
X35466Y-27375D01*
X35635Y-27375D01*
X35791Y-27440D01*
X35911Y-27560D01*
X35975Y-27716D01*
X35975Y-27885D01*
X35910Y-28041D01*
X35790Y-28161D01*
X35634Y-28225D01*
X35465Y-28225D01*
X35465Y-31855D01*
X35485Y-31855D01*
X35540Y-31878D01*
X35610Y-31809D01*
X35766Y-31745D01*
X35935Y-31745D01*
X36091Y-31810D01*
X36211Y-31930D01*
X36275Y-32086D01*
X36275Y-32255D01*
X36210Y-32411D01*
X36090Y-32531D01*
X35934Y-32595D01*
X35765Y-32595D01*
X35709Y-32571D01*
X35640Y-32641D01*
X35484Y-32705D01*
X35315Y-32705D01*
X35315Y-34282D01*
X35335Y-34303D01*
X35389Y-34435D01*
X35445Y-34302D01*
X35593Y-34155D01*
X35786Y-34075D01*
X35995Y-34075D01*
X36188Y-34155D01*
X36335Y-34303D01*
X36389Y-34435D01*
X36445Y-34302D01*
X36593Y-34155D01*
X36595Y-34154D01*
X36595Y-31525D01*
X36439Y-31460D01*
X36319Y-31340D01*
X36255Y-31184D01*
X36255Y-31015D01*
X36320Y-30859D01*
X36440Y-30739D01*
X36515Y-30708D01*
X36515Y-29305D01*
X36359Y-29240D01*
X36239Y-29120D01*
X36175Y-28964D01*
X36175Y-28795D01*
X36240Y-28639D01*
X36254Y-28625D01*
X36149Y-28520D01*
X36085Y-28364D01*
X36085Y-28195D01*
X36150Y-28039D01*
X36270Y-27919D01*
X36426Y-27855D01*
X36595Y-27855D01*
X36751Y-27920D01*
X36871Y-28040D01*
X36935Y-28196D01*
X36935Y-28365D01*
X36870Y-28521D01*
X36856Y-28535D01*
X36961Y-28640D01*
X37025Y-28796D01*
X37025Y-28965D01*
X36960Y-29121D01*
X36840Y-29241D01*
X36684Y-29305D01*
X36515Y-29305D01*
X36515Y-30708D01*
X36596Y-30675D01*
X36765Y-30675D01*
X36921Y-30740D01*
X37041Y-30860D01*
X37105Y-31016D01*
X37105Y-31185D01*
X37040Y-31341D01*
X36920Y-31461D01*
X36764Y-31525D01*
X36595Y-31525D01*
X36595Y-34154D01*
X36786Y-34075D01*
X36995Y-34075D01*
X37188Y-34155D01*
X37335Y-34303D01*
X37415Y-34496D01*
X37415Y-34705D01*
X37335Y-34898D01*
X37187Y-35045D01*
X36994Y-35125D01*
X36785Y-35125D01*
X36785Y-36135D01*
X36995Y-36135D01*
X37188Y-36215D01*
X37335Y-36363D01*
X37415Y-36556D01*
X37415Y-36765D01*
X37335Y-36958D01*
X37187Y-37105D01*
X36994Y-37185D01*
X36785Y-37185D01*
X36785Y-37285D01*
X38481Y-37285D01*
X38481Y-25029D01*
X38279Y-24945D01*
X38125Y-24791D01*
X38041Y-24589D01*
X38041Y-24371D01*
X38125Y-24169D01*
X38279Y-24015D01*
X38481Y-23931D01*
X38699Y-23931D01*
X38901Y-24015D01*
X39055Y-24169D01*
X39139Y-24371D01*
X39139Y-24589D01*
X39055Y-24791D01*
X38901Y-24945D01*
X38699Y-25029D01*
X38481Y-25029D01*
X38481Y-37285D01*
X39481Y-37285D01*
X39481Y-26029D01*
X39279Y-25945D01*
X39125Y-25791D01*
X39041Y-25589D01*
X39041Y-25371D01*
X39125Y-25169D01*
X39212Y-25082D01*
X39212Y-23788D01*
X39118Y-23761D01*
X39058Y-23614D01*
X39047Y-23401D01*
X39118Y-23199D01*
X39212Y-23172D01*
X39519Y-23480D01*
X39212Y-23788D01*
X39212Y-25082D01*
X39279Y-25015D01*
X39481Y-24931D01*
X39511Y-24931D01*
X39511Y-24023D01*
X39309Y-23952D01*
X39282Y-23858D01*
X39590Y-23551D01*
X39590Y-23409D01*
X39282Y-23102D01*
X39309Y-23008D01*
X39456Y-22948D01*
X39669Y-22937D01*
X39871Y-23008D01*
X39898Y-23102D01*
X39590Y-23409D01*
X39590Y-23551D01*
X39898Y-23858D01*
X39871Y-23952D01*
X39724Y-24012D01*
X39511Y-24023D01*
X39511Y-24931D01*
X39699Y-24931D01*
X39901Y-25015D01*
X39968Y-25082D01*
X39968Y-23788D01*
X39661Y-23480D01*
X39968Y-23172D01*
X40062Y-23199D01*
X40122Y-23346D01*
X40133Y-23559D01*
X40062Y-23761D01*
X39968Y-23788D01*
X39968Y-25082D01*
X40055Y-25169D01*
X40139Y-25371D01*
X40139Y-25589D01*
X40055Y-25791D01*
X39901Y-25945D01*
X39699Y-26029D01*
X39481Y-26029D01*
X39481Y-37285D01*
X41061Y-37285D01*
X41061Y-32599D01*
X40859Y-32515D01*
X40705Y-32361D01*
X40621Y-32159D01*
X40621Y-31941D01*
X40705Y-31739D01*
X40844Y-31599D01*
X40820Y-31599D01*
X40729Y-31561D01*
X40659Y-31491D01*
X40621Y-31399D01*
X40621Y-30700D01*
X40659Y-30609D01*
X40729Y-30539D01*
X40821Y-30501D01*
X40840Y-30501D01*
X40840Y-29309D01*
X40749Y-29271D01*
X40679Y-29201D01*
X40641Y-29109D01*
X40641Y-28410D01*
X40679Y-28319D01*
X40749Y-28249D01*
X40841Y-28211D01*
X40865Y-28211D01*
X40725Y-28071D01*
X40641Y-27869D01*
X40641Y-27651D01*
X40725Y-27449D01*
X40879Y-27295D01*
X40952Y-27264D01*
X40952Y-25968D01*
X40858Y-25941D01*
X40798Y-25794D01*
X40787Y-25581D01*
X40858Y-25379D01*
X40952Y-25352D01*
X40980Y-25380D01*
X41259Y-25660D01*
X40980Y-25939D01*
X40952Y-25968D01*
X40952Y-27264D01*
X40980Y-27253D01*
X41081Y-27211D01*
X41251Y-27211D01*
X41251Y-26203D01*
X41049Y-26132D01*
X41022Y-26038D01*
X41330Y-25731D01*
X41330Y-25589D01*
X41022Y-25282D01*
X41042Y-25209D01*
X40980Y-25209D01*
X40889Y-25171D01*
X40819Y-25101D01*
X40781Y-25009D01*
X40781Y-24310D01*
X40819Y-24219D01*
X40889Y-24149D01*
X40981Y-24111D01*
X41680Y-24111D01*
X41771Y-24149D01*
X41841Y-24219D01*
X41879Y-24311D01*
X41879Y-25010D01*
X41841Y-25101D01*
X41771Y-25171D01*
X41679Y-25209D01*
X41617Y-25209D01*
X41638Y-25282D01*
X41330Y-25589D01*
X41330Y-25731D01*
X41638Y-26038D01*
X41611Y-26132D01*
X41464Y-26192D01*
X41251Y-26203D01*
X41251Y-27211D01*
X41299Y-27211D01*
X41501Y-27295D01*
X41655Y-27449D01*
X41708Y-27576D01*
X41708Y-25968D01*
X41401Y-25660D01*
X41708Y-25352D01*
X41802Y-25379D01*
X41862Y-25526D01*
X41873Y-25739D01*
X41802Y-25941D01*
X41708Y-25968D01*
X41708Y-27576D01*
X41739Y-27651D01*
X41739Y-27869D01*
X41655Y-28071D01*
X41515Y-28211D01*
X41540Y-28211D01*
X41631Y-28249D01*
X41701Y-28319D01*
X41739Y-28411D01*
X41739Y-29110D01*
X41701Y-29201D01*
X41631Y-29271D01*
X41539Y-29309D01*
X40840Y-29309D01*
X40840Y-30501D01*
X41520Y-30501D01*
X41611Y-30539D01*
X41681Y-30609D01*
X41719Y-30701D01*
X41719Y-31400D01*
X41681Y-31491D01*
X41611Y-31561D01*
X41519Y-31599D01*
X41495Y-31599D01*
X41635Y-31739D01*
X41719Y-31941D01*
X41719Y-32159D01*
X41635Y-32361D01*
X41481Y-32515D01*
X41279Y-32599D01*
X41061Y-32599D01*
X41061Y-37285D01*
X42125Y-37285D01*
M02*
