G04 (created by PCBNEW (2010-05-05 BZR 2356)-stable) date 29/03/2011 14:53:01*
G01*
G70*
G90*
%MOIN*%
G04 Gerber Fmt 3.4, Leading zero omitted, Abs format*
%FSLAX34Y34*%
G04 APERTURE LIST*
%ADD10C,0.001000*%
%ADD11C,0.015000*%
%ADD12C,0.008000*%
G04 APERTURE END LIST*
G54D10*
G54D11*
X25550Y-22360D02*
X25600Y-22360D01*
X25550Y-37560D02*
X25550Y-22360D01*
X42400Y-37560D02*
X25550Y-37560D01*
X42400Y-22360D02*
X42400Y-37560D01*
X25500Y-22360D02*
X42400Y-22360D01*
G54D10*
X27725Y-23565D02*
X27975Y-23815D01*
X27975Y-23565D02*
X27725Y-23815D01*
X29410Y-31415D02*
X29660Y-31665D01*
X29660Y-31415D02*
X29410Y-31665D01*
X29685Y-28635D02*
X29935Y-28885D01*
X29935Y-28635D02*
X29685Y-28885D01*
X29985Y-33755D02*
X30235Y-34005D01*
X30235Y-33755D02*
X29985Y-34005D01*
X30445Y-32575D02*
X30695Y-32825D01*
X30695Y-32575D02*
X30445Y-32825D01*
X30475Y-31845D02*
X30725Y-32095D01*
X30725Y-31845D02*
X30475Y-32095D01*
X31015Y-33025D02*
X31265Y-33275D01*
X31265Y-33025D02*
X31015Y-33275D01*
X31065Y-31375D02*
X31315Y-31625D01*
X31315Y-31375D02*
X31065Y-31625D01*
X31105Y-34455D02*
X31355Y-34705D01*
X31355Y-34455D02*
X31105Y-34705D01*
X31595Y-31005D02*
X31845Y-31255D01*
X31845Y-31005D02*
X31595Y-31255D01*
X31775Y-31495D02*
X32025Y-31745D01*
X32025Y-31495D02*
X31775Y-31745D01*
X31785Y-28705D02*
X32035Y-28955D01*
X32035Y-28705D02*
X31785Y-28955D01*
X32145Y-28005D02*
X32395Y-28255D01*
X32395Y-28005D02*
X32145Y-28255D01*
X32205Y-23925D02*
X32455Y-24175D01*
X32455Y-23925D02*
X32205Y-24175D01*
X32735Y-28055D02*
X32985Y-28305D01*
X32985Y-28055D02*
X32735Y-28305D01*
X32825Y-32215D02*
X33075Y-32465D01*
X33075Y-32215D02*
X32825Y-32465D01*
X32935Y-25725D02*
X33185Y-25975D01*
X33185Y-25725D02*
X32935Y-25975D01*
X33305Y-26755D02*
X33555Y-27005D01*
X33555Y-26755D02*
X33305Y-27005D01*
X33345Y-33395D02*
X33595Y-33645D01*
X33595Y-33395D02*
X33345Y-33645D01*
X33875Y-29875D02*
X34125Y-30125D01*
X34125Y-29875D02*
X33875Y-30125D01*
X34165Y-33045D02*
X34415Y-33295D01*
X34415Y-33045D02*
X34165Y-33295D01*
X34375Y-32605D02*
X34625Y-32855D01*
X34625Y-32605D02*
X34375Y-32855D01*
X34575Y-27205D02*
X34825Y-27455D01*
X34825Y-27205D02*
X34575Y-27455D01*
X34725Y-33645D02*
X34975Y-33895D01*
X34975Y-33645D02*
X34725Y-33895D01*
X35275Y-32155D02*
X35525Y-32405D01*
X35525Y-32155D02*
X35275Y-32405D01*
X35425Y-27675D02*
X35675Y-27925D01*
X35675Y-27675D02*
X35425Y-27925D01*
X35725Y-32045D02*
X35975Y-32295D01*
X35975Y-32045D02*
X35725Y-32295D01*
X35775Y-26595D02*
X36025Y-26845D01*
X36025Y-26595D02*
X35775Y-26845D01*
X36385Y-28155D02*
X36635Y-28405D01*
X36635Y-28155D02*
X36385Y-28405D01*
X36475Y-28755D02*
X36725Y-29005D01*
X36725Y-28755D02*
X36475Y-29005D01*
X36555Y-30975D02*
X36805Y-31225D01*
X36805Y-30975D02*
X36555Y-31225D01*
X40005Y-34405D02*
X40255Y-34655D01*
X40255Y-34405D02*
X40005Y-34655D01*
X34050Y-34600D02*
X34046Y-34631D01*
X34037Y-34660D01*
X34023Y-34688D01*
X34003Y-34712D01*
X33979Y-34732D01*
X33952Y-34747D01*
X33922Y-34756D01*
X33891Y-34759D01*
X33861Y-34757D01*
X33831Y-34748D01*
X33803Y-34733D01*
X33779Y-34714D01*
X33758Y-34690D01*
X33743Y-34663D01*
X33734Y-34633D01*
X33731Y-34602D01*
X33733Y-34572D01*
X33742Y-34542D01*
X33756Y-34514D01*
X33775Y-34489D01*
X33799Y-34469D01*
X33826Y-34454D01*
X33856Y-34444D01*
X33887Y-34441D01*
X33917Y-34443D01*
X33947Y-34451D01*
X33975Y-34465D01*
X34000Y-34485D01*
X34020Y-34508D01*
X34036Y-34535D01*
X34046Y-34565D01*
X34049Y-34596D01*
X34050Y-34600D01*
X34050Y-36660D02*
X34046Y-36691D01*
X34037Y-36720D01*
X34023Y-36748D01*
X34003Y-36772D01*
X33979Y-36792D01*
X33952Y-36807D01*
X33922Y-36816D01*
X33891Y-36819D01*
X33861Y-36817D01*
X33831Y-36808D01*
X33803Y-36793D01*
X33779Y-36774D01*
X33758Y-36750D01*
X33743Y-36723D01*
X33734Y-36693D01*
X33731Y-36662D01*
X33733Y-36632D01*
X33742Y-36602D01*
X33756Y-36574D01*
X33775Y-36549D01*
X33799Y-36529D01*
X33826Y-36514D01*
X33856Y-36504D01*
X33887Y-36501D01*
X33917Y-36503D01*
X33947Y-36511D01*
X33975Y-36525D01*
X34000Y-36545D01*
X34020Y-36568D01*
X34036Y-36595D01*
X34046Y-36625D01*
X34049Y-36656D01*
X34050Y-36660D01*
X35050Y-34600D02*
X35046Y-34631D01*
X35037Y-34660D01*
X35023Y-34688D01*
X35003Y-34712D01*
X34979Y-34732D01*
X34952Y-34747D01*
X34922Y-34756D01*
X34891Y-34759D01*
X34861Y-34757D01*
X34831Y-34748D01*
X34803Y-34733D01*
X34779Y-34714D01*
X34758Y-34690D01*
X34743Y-34663D01*
X34734Y-34633D01*
X34731Y-34602D01*
X34733Y-34572D01*
X34742Y-34542D01*
X34756Y-34514D01*
X34775Y-34489D01*
X34799Y-34469D01*
X34826Y-34454D01*
X34856Y-34444D01*
X34887Y-34441D01*
X34917Y-34443D01*
X34947Y-34451D01*
X34975Y-34465D01*
X35000Y-34485D01*
X35020Y-34508D01*
X35036Y-34535D01*
X35046Y-34565D01*
X35049Y-34596D01*
X35050Y-34600D01*
X35050Y-36660D02*
X35046Y-36691D01*
X35037Y-36720D01*
X35023Y-36748D01*
X35003Y-36772D01*
X34979Y-36792D01*
X34952Y-36807D01*
X34922Y-36816D01*
X34891Y-36819D01*
X34861Y-36817D01*
X34831Y-36808D01*
X34803Y-36793D01*
X34779Y-36774D01*
X34758Y-36750D01*
X34743Y-36723D01*
X34734Y-36693D01*
X34731Y-36662D01*
X34733Y-36632D01*
X34742Y-36602D01*
X34756Y-36574D01*
X34775Y-36549D01*
X34799Y-36529D01*
X34826Y-36514D01*
X34856Y-36504D01*
X34887Y-36501D01*
X34917Y-36503D01*
X34947Y-36511D01*
X34975Y-36525D01*
X35000Y-36545D01*
X35020Y-36568D01*
X35036Y-36595D01*
X35046Y-36625D01*
X35049Y-36656D01*
X35050Y-36660D01*
X36050Y-34600D02*
X36046Y-34631D01*
X36037Y-34660D01*
X36023Y-34688D01*
X36003Y-34712D01*
X35979Y-34732D01*
X35952Y-34747D01*
X35922Y-34756D01*
X35891Y-34759D01*
X35861Y-34757D01*
X35831Y-34748D01*
X35803Y-34733D01*
X35779Y-34714D01*
X35758Y-34690D01*
X35743Y-34663D01*
X35734Y-34633D01*
X35731Y-34602D01*
X35733Y-34572D01*
X35742Y-34542D01*
X35756Y-34514D01*
X35775Y-34489D01*
X35799Y-34469D01*
X35826Y-34454D01*
X35856Y-34444D01*
X35887Y-34441D01*
X35917Y-34443D01*
X35947Y-34451D01*
X35975Y-34465D01*
X36000Y-34485D01*
X36020Y-34508D01*
X36036Y-34535D01*
X36046Y-34565D01*
X36049Y-34596D01*
X36050Y-34600D01*
X36050Y-36660D02*
X36046Y-36691D01*
X36037Y-36720D01*
X36023Y-36748D01*
X36003Y-36772D01*
X35979Y-36792D01*
X35952Y-36807D01*
X35922Y-36816D01*
X35891Y-36819D01*
X35861Y-36817D01*
X35831Y-36808D01*
X35803Y-36793D01*
X35779Y-36774D01*
X35758Y-36750D01*
X35743Y-36723D01*
X35734Y-36693D01*
X35731Y-36662D01*
X35733Y-36632D01*
X35742Y-36602D01*
X35756Y-36574D01*
X35775Y-36549D01*
X35799Y-36529D01*
X35826Y-36514D01*
X35856Y-36504D01*
X35887Y-36501D01*
X35917Y-36503D01*
X35947Y-36511D01*
X35975Y-36525D01*
X36000Y-36545D01*
X36020Y-36568D01*
X36036Y-36595D01*
X36046Y-36625D01*
X36049Y-36656D01*
X36050Y-36660D01*
X37050Y-34600D02*
X37046Y-34631D01*
X37037Y-34660D01*
X37023Y-34688D01*
X37003Y-34712D01*
X36979Y-34732D01*
X36952Y-34747D01*
X36922Y-34756D01*
X36891Y-34759D01*
X36861Y-34757D01*
X36831Y-34748D01*
X36803Y-34733D01*
X36779Y-34714D01*
X36758Y-34690D01*
X36743Y-34663D01*
X36734Y-34633D01*
X36731Y-34602D01*
X36733Y-34572D01*
X36742Y-34542D01*
X36756Y-34514D01*
X36775Y-34489D01*
X36799Y-34469D01*
X36826Y-34454D01*
X36856Y-34444D01*
X36887Y-34441D01*
X36917Y-34443D01*
X36947Y-34451D01*
X36975Y-34465D01*
X37000Y-34485D01*
X37020Y-34508D01*
X37036Y-34535D01*
X37046Y-34565D01*
X37049Y-34596D01*
X37050Y-34600D01*
X37050Y-36660D02*
X37046Y-36691D01*
X37037Y-36720D01*
X37023Y-36748D01*
X37003Y-36772D01*
X36979Y-36792D01*
X36952Y-36807D01*
X36922Y-36816D01*
X36891Y-36819D01*
X36861Y-36817D01*
X36831Y-36808D01*
X36803Y-36793D01*
X36779Y-36774D01*
X36758Y-36750D01*
X36743Y-36723D01*
X36734Y-36693D01*
X36731Y-36662D01*
X36733Y-36632D01*
X36742Y-36602D01*
X36756Y-36574D01*
X36775Y-36549D01*
X36799Y-36529D01*
X36826Y-36514D01*
X36856Y-36504D01*
X36887Y-36501D01*
X36917Y-36503D01*
X36947Y-36511D01*
X36975Y-36525D01*
X37000Y-36545D01*
X37020Y-36568D01*
X37036Y-36595D01*
X37046Y-36625D01*
X37049Y-36656D01*
X37050Y-36660D01*
X38750Y-24480D02*
X38746Y-24511D01*
X38737Y-24540D01*
X38723Y-24568D01*
X38703Y-24592D01*
X38679Y-24612D01*
X38652Y-24627D01*
X38622Y-24636D01*
X38591Y-24639D01*
X38561Y-24637D01*
X38531Y-24628D01*
X38503Y-24613D01*
X38479Y-24594D01*
X38458Y-24570D01*
X38443Y-24543D01*
X38434Y-24513D01*
X38431Y-24482D01*
X38433Y-24452D01*
X38442Y-24422D01*
X38456Y-24394D01*
X38475Y-24369D01*
X38499Y-24349D01*
X38526Y-24334D01*
X38556Y-24324D01*
X38587Y-24321D01*
X38617Y-24323D01*
X38647Y-24331D01*
X38675Y-24345D01*
X38700Y-24365D01*
X38720Y-24388D01*
X38736Y-24415D01*
X38746Y-24445D01*
X38749Y-24476D01*
X38750Y-24480D01*
X39750Y-23480D02*
X39746Y-23511D01*
X39737Y-23540D01*
X39723Y-23568D01*
X39703Y-23592D01*
X39679Y-23612D01*
X39652Y-23627D01*
X39622Y-23636D01*
X39591Y-23639D01*
X39561Y-23637D01*
X39531Y-23628D01*
X39503Y-23613D01*
X39479Y-23594D01*
X39458Y-23570D01*
X39443Y-23543D01*
X39434Y-23513D01*
X39431Y-23482D01*
X39433Y-23452D01*
X39442Y-23422D01*
X39456Y-23394D01*
X39475Y-23369D01*
X39499Y-23349D01*
X39526Y-23334D01*
X39556Y-23324D01*
X39587Y-23321D01*
X39617Y-23323D01*
X39647Y-23331D01*
X39675Y-23345D01*
X39700Y-23365D01*
X39720Y-23388D01*
X39736Y-23415D01*
X39746Y-23445D01*
X39749Y-23476D01*
X39750Y-23480D01*
X39750Y-25480D02*
X39746Y-25511D01*
X39737Y-25540D01*
X39723Y-25568D01*
X39703Y-25592D01*
X39679Y-25612D01*
X39652Y-25627D01*
X39622Y-25636D01*
X39591Y-25639D01*
X39561Y-25637D01*
X39531Y-25628D01*
X39503Y-25613D01*
X39479Y-25594D01*
X39458Y-25570D01*
X39443Y-25543D01*
X39434Y-25513D01*
X39431Y-25482D01*
X39433Y-25452D01*
X39442Y-25422D01*
X39456Y-25394D01*
X39475Y-25369D01*
X39499Y-25349D01*
X39526Y-25334D01*
X39556Y-25324D01*
X39587Y-25321D01*
X39617Y-25323D01*
X39647Y-25331D01*
X39675Y-25345D01*
X39700Y-25365D01*
X39720Y-25388D01*
X39736Y-25415D01*
X39746Y-25445D01*
X39749Y-25476D01*
X39750Y-25480D01*
X26470Y-25010D02*
X26470Y-25410D01*
X26670Y-25210D02*
X26270Y-25210D01*
X26470Y-26010D02*
X26470Y-26410D01*
X26670Y-26210D02*
X26270Y-26210D01*
X26470Y-27010D02*
X26470Y-27410D01*
X26670Y-27210D02*
X26270Y-27210D01*
X26475Y-29300D02*
X26475Y-29700D01*
X26675Y-29500D02*
X26275Y-29500D01*
X26475Y-30300D02*
X26475Y-30700D01*
X26675Y-30500D02*
X26275Y-30500D01*
X26475Y-31300D02*
X26475Y-31700D01*
X26675Y-31500D02*
X26275Y-31500D01*
X26475Y-32300D02*
X26475Y-32700D01*
X26675Y-32500D02*
X26275Y-32500D01*
X26475Y-33300D02*
X26475Y-33700D01*
X26675Y-33500D02*
X26275Y-33500D01*
X26475Y-34300D02*
X26475Y-34700D01*
X26675Y-34500D02*
X26275Y-34500D01*
X26475Y-35300D02*
X26475Y-35700D01*
X26675Y-35500D02*
X26275Y-35500D01*
X26475Y-36300D02*
X26475Y-36700D01*
X26675Y-36500D02*
X26275Y-36500D01*
X27470Y-25010D02*
X27470Y-25410D01*
X27670Y-25210D02*
X27270Y-25210D01*
X27470Y-26010D02*
X27470Y-26410D01*
X27670Y-26210D02*
X27270Y-26210D01*
X27470Y-27010D02*
X27470Y-27410D01*
X27670Y-27210D02*
X27270Y-27210D01*
X27475Y-29300D02*
X27475Y-29700D01*
X27675Y-29500D02*
X27275Y-29500D01*
X27475Y-30300D02*
X27475Y-30700D01*
X27675Y-30500D02*
X27275Y-30500D01*
X27475Y-31300D02*
X27475Y-31700D01*
X27675Y-31500D02*
X27275Y-31500D01*
X27475Y-32300D02*
X27475Y-32700D01*
X27675Y-32500D02*
X27275Y-32500D01*
X27475Y-33300D02*
X27475Y-33700D01*
X27675Y-33500D02*
X27275Y-33500D01*
X27475Y-34300D02*
X27475Y-34700D01*
X27675Y-34500D02*
X27275Y-34500D01*
X27475Y-35300D02*
X27475Y-35700D01*
X27675Y-35500D02*
X27275Y-35500D01*
X27475Y-36300D02*
X27475Y-36700D01*
X27675Y-36500D02*
X27275Y-36500D01*
X41170Y-30850D02*
X41170Y-31250D01*
X41370Y-31050D02*
X40970Y-31050D01*
X41170Y-31850D02*
X41170Y-32250D01*
X41370Y-32050D02*
X40970Y-32050D01*
X41190Y-27560D02*
X41190Y-27960D01*
X41390Y-27760D02*
X40990Y-27760D01*
X41190Y-28560D02*
X41190Y-28960D01*
X41390Y-28760D02*
X40990Y-28760D01*
X41330Y-24460D02*
X41330Y-24860D01*
X41530Y-24660D02*
X41130Y-24660D01*
X41330Y-25460D02*
X41330Y-25860D01*
X41530Y-25660D02*
X41130Y-25660D01*
G54D12*
X25541Y-38840D02*
X25541Y-38040D01*
X25732Y-38040D01*
X25846Y-38078D01*
X25922Y-38154D01*
X25961Y-38230D01*
X25999Y-38383D01*
X25999Y-38497D01*
X25961Y-38649D01*
X25922Y-38726D01*
X25846Y-38802D01*
X25732Y-38840D01*
X25541Y-38840D01*
X26341Y-38840D02*
X26341Y-38306D01*
X26341Y-38459D02*
X26380Y-38383D01*
X26418Y-38345D01*
X26494Y-38306D01*
X26570Y-38306D01*
X26836Y-38840D02*
X26836Y-38306D01*
X26836Y-38040D02*
X26798Y-38078D01*
X26836Y-38116D01*
X26875Y-38078D01*
X26836Y-38040D01*
X26836Y-38116D01*
X27332Y-38840D02*
X27256Y-38802D01*
X27217Y-38726D01*
X27217Y-38040D01*
X27751Y-38840D02*
X27675Y-38802D01*
X27636Y-38726D01*
X27636Y-38040D01*
X28665Y-38840D02*
X28665Y-38040D01*
X28932Y-38611D01*
X29199Y-38040D01*
X29199Y-38840D01*
X29922Y-38840D02*
X29922Y-38421D01*
X29884Y-38345D01*
X29808Y-38306D01*
X29656Y-38306D01*
X29579Y-38345D01*
X29922Y-38802D02*
X29846Y-38840D01*
X29656Y-38840D01*
X29579Y-38802D01*
X29541Y-38726D01*
X29541Y-38649D01*
X29579Y-38573D01*
X29656Y-38535D01*
X29846Y-38535D01*
X29922Y-38497D01*
X30303Y-38306D02*
X30303Y-39106D01*
X30303Y-38345D02*
X30380Y-38306D01*
X30532Y-38306D01*
X30608Y-38345D01*
X30646Y-38383D01*
X30684Y-38459D01*
X30684Y-38687D01*
X30646Y-38764D01*
X30608Y-38802D01*
X30532Y-38840D01*
X30380Y-38840D01*
X30303Y-38802D01*
X31027Y-38764D02*
X31066Y-38802D01*
X31027Y-38840D01*
X30989Y-38802D01*
X31027Y-38764D01*
X31027Y-38840D01*
X31027Y-38345D02*
X31066Y-38383D01*
X31027Y-38421D01*
X30989Y-38383D01*
X31027Y-38345D01*
X31027Y-38421D01*
X24901Y-40071D02*
X25151Y-40321D01*
X25151Y-40071D02*
X24901Y-40321D01*
X25694Y-39720D02*
X25770Y-39720D01*
X25846Y-39758D01*
X25884Y-39796D01*
X25922Y-39872D01*
X25961Y-40025D01*
X25961Y-40215D01*
X25922Y-40367D01*
X25884Y-40444D01*
X25846Y-40482D01*
X25770Y-40520D01*
X25694Y-40520D01*
X25618Y-40482D01*
X25580Y-40444D01*
X25541Y-40367D01*
X25503Y-40215D01*
X25503Y-40025D01*
X25541Y-39872D01*
X25580Y-39796D01*
X25618Y-39758D01*
X25694Y-39720D01*
X26303Y-40444D02*
X26342Y-40482D01*
X26303Y-40520D01*
X26265Y-40482D01*
X26303Y-40444D01*
X26303Y-40520D01*
X27027Y-39720D02*
X26875Y-39720D01*
X26799Y-39758D01*
X26761Y-39796D01*
X26684Y-39910D01*
X26646Y-40063D01*
X26646Y-40367D01*
X26684Y-40444D01*
X26723Y-40482D01*
X26799Y-40520D01*
X26951Y-40520D01*
X27027Y-40482D01*
X27065Y-40444D01*
X27104Y-40367D01*
X27104Y-40177D01*
X27065Y-40101D01*
X27027Y-40063D01*
X26951Y-40025D01*
X26799Y-40025D01*
X26723Y-40063D01*
X26684Y-40101D01*
X26646Y-40177D01*
X27789Y-39986D02*
X27789Y-40520D01*
X27599Y-39682D02*
X27408Y-40253D01*
X27904Y-40253D01*
X28208Y-40520D02*
X28208Y-39986D01*
X28208Y-40063D02*
X28247Y-40025D01*
X28323Y-39986D01*
X28437Y-39986D01*
X28513Y-40025D01*
X28551Y-40101D01*
X28551Y-40520D01*
X28551Y-40101D02*
X28589Y-40025D01*
X28666Y-39986D01*
X28780Y-39986D01*
X28856Y-40025D01*
X28894Y-40101D01*
X28894Y-40520D01*
X29275Y-40520D02*
X29275Y-39986D01*
X29275Y-40063D02*
X29314Y-40025D01*
X29390Y-39986D01*
X29504Y-39986D01*
X29580Y-40025D01*
X29618Y-40101D01*
X29618Y-40520D01*
X29618Y-40101D02*
X29656Y-40025D01*
X29733Y-39986D01*
X29847Y-39986D01*
X29923Y-40025D01*
X29961Y-40101D01*
X29961Y-40520D01*
X31524Y-39682D02*
X30838Y-40710D01*
X32553Y-39720D02*
X32629Y-39720D01*
X32705Y-39758D01*
X32743Y-39796D01*
X32781Y-39872D01*
X32820Y-40025D01*
X32820Y-40215D01*
X32781Y-40367D01*
X32743Y-40444D01*
X32705Y-40482D01*
X32629Y-40520D01*
X32553Y-40520D01*
X32477Y-40482D01*
X32439Y-40444D01*
X32400Y-40367D01*
X32362Y-40215D01*
X32362Y-40025D01*
X32400Y-39872D01*
X32439Y-39796D01*
X32477Y-39758D01*
X32553Y-39720D01*
X33162Y-40444D02*
X33201Y-40482D01*
X33162Y-40520D01*
X33124Y-40482D01*
X33162Y-40444D01*
X33162Y-40520D01*
X33696Y-39720D02*
X33772Y-39720D01*
X33848Y-39758D01*
X33886Y-39796D01*
X33924Y-39872D01*
X33963Y-40025D01*
X33963Y-40215D01*
X33924Y-40367D01*
X33886Y-40444D01*
X33848Y-40482D01*
X33772Y-40520D01*
X33696Y-40520D01*
X33620Y-40482D01*
X33582Y-40444D01*
X33543Y-40367D01*
X33505Y-40215D01*
X33505Y-40025D01*
X33543Y-39872D01*
X33582Y-39796D01*
X33620Y-39758D01*
X33696Y-39720D01*
X34267Y-39796D02*
X34305Y-39758D01*
X34382Y-39720D01*
X34572Y-39720D01*
X34648Y-39758D01*
X34686Y-39796D01*
X34725Y-39872D01*
X34725Y-39948D01*
X34686Y-40063D01*
X34229Y-40520D01*
X34725Y-40520D01*
X35448Y-39720D02*
X35067Y-39720D01*
X35029Y-40101D01*
X35067Y-40063D01*
X35144Y-40025D01*
X35334Y-40025D01*
X35410Y-40063D01*
X35448Y-40101D01*
X35487Y-40177D01*
X35487Y-40367D01*
X35448Y-40444D01*
X35410Y-40482D01*
X35334Y-40520D01*
X35144Y-40520D01*
X35067Y-40482D01*
X35029Y-40444D01*
X35791Y-39720D02*
X35791Y-39872D01*
X36096Y-39720D02*
X36096Y-39872D01*
X37278Y-40825D02*
X37240Y-40786D01*
X37164Y-40672D01*
X37126Y-40596D01*
X37088Y-40482D01*
X37049Y-40291D01*
X37049Y-40139D01*
X37088Y-39948D01*
X37126Y-39834D01*
X37164Y-39758D01*
X37240Y-39644D01*
X37278Y-39606D01*
X37506Y-39720D02*
X38002Y-39720D01*
X37735Y-40025D01*
X37849Y-40025D01*
X37925Y-40063D01*
X37963Y-40101D01*
X38002Y-40177D01*
X38002Y-40367D01*
X37963Y-40444D01*
X37925Y-40482D01*
X37849Y-40520D01*
X37621Y-40520D01*
X37544Y-40482D01*
X37506Y-40444D01*
X38306Y-39796D02*
X38344Y-39758D01*
X38421Y-39720D01*
X38611Y-39720D01*
X38687Y-39758D01*
X38725Y-39796D01*
X38764Y-39872D01*
X38764Y-39948D01*
X38725Y-40063D01*
X38268Y-40520D01*
X38764Y-40520D01*
X39716Y-40520D02*
X39716Y-39720D01*
X40059Y-40520D02*
X40059Y-40101D01*
X40021Y-40025D01*
X39945Y-39986D01*
X39831Y-39986D01*
X39755Y-40025D01*
X39716Y-40063D01*
X40555Y-40520D02*
X40479Y-40482D01*
X40440Y-40444D01*
X40402Y-40367D01*
X40402Y-40139D01*
X40440Y-40063D01*
X40479Y-40025D01*
X40555Y-39986D01*
X40669Y-39986D01*
X40745Y-40025D01*
X40783Y-40063D01*
X40821Y-40139D01*
X40821Y-40367D01*
X40783Y-40444D01*
X40745Y-40482D01*
X40669Y-40520D01*
X40555Y-40520D01*
X41279Y-40520D02*
X41203Y-40482D01*
X41164Y-40406D01*
X41164Y-39720D01*
X41888Y-40482D02*
X41812Y-40520D01*
X41660Y-40520D01*
X41583Y-40482D01*
X41545Y-40406D01*
X41545Y-40101D01*
X41583Y-40025D01*
X41660Y-39986D01*
X41812Y-39986D01*
X41888Y-40025D01*
X41926Y-40101D01*
X41926Y-40177D01*
X41545Y-40253D01*
X42231Y-40482D02*
X42308Y-40520D01*
X42460Y-40520D01*
X42536Y-40482D01*
X42574Y-40406D01*
X42574Y-40367D01*
X42536Y-40291D01*
X42460Y-40253D01*
X42346Y-40253D01*
X42269Y-40215D01*
X42231Y-40139D01*
X42231Y-40101D01*
X42269Y-40025D01*
X42346Y-39986D01*
X42460Y-39986D01*
X42536Y-40025D01*
X42841Y-40825D02*
X42879Y-40786D01*
X42956Y-40672D01*
X42994Y-40596D01*
X43032Y-40482D01*
X43070Y-40291D01*
X43070Y-40139D01*
X43032Y-39948D01*
X42994Y-39834D01*
X42956Y-39758D01*
X42879Y-39644D01*
X42841Y-39606D01*
G54D10*
X25151Y-41251D02*
X25147Y-41282D01*
X25138Y-41311D01*
X25124Y-41339D01*
X25104Y-41363D01*
X25080Y-41383D01*
X25053Y-41398D01*
X25023Y-41407D01*
X24992Y-41410D01*
X24962Y-41408D01*
X24932Y-41399D01*
X24904Y-41384D01*
X24880Y-41365D01*
X24859Y-41341D01*
X24844Y-41314D01*
X24835Y-41284D01*
X24832Y-41253D01*
X24834Y-41223D01*
X24843Y-41193D01*
X24857Y-41165D01*
X24876Y-41140D01*
X24900Y-41120D01*
X24927Y-41105D01*
X24957Y-41095D01*
X24988Y-41092D01*
X25018Y-41094D01*
X25048Y-41102D01*
X25076Y-41116D01*
X25101Y-41136D01*
X25121Y-41159D01*
X25137Y-41186D01*
X25147Y-41216D01*
X25150Y-41247D01*
X25151Y-41251D01*
G54D12*
X25694Y-40775D02*
X25770Y-40775D01*
X25846Y-40813D01*
X25884Y-40851D01*
X25922Y-40927D01*
X25961Y-41080D01*
X25961Y-41270D01*
X25922Y-41422D01*
X25884Y-41499D01*
X25846Y-41537D01*
X25770Y-41575D01*
X25694Y-41575D01*
X25618Y-41537D01*
X25580Y-41499D01*
X25541Y-41422D01*
X25503Y-41270D01*
X25503Y-41080D01*
X25541Y-40927D01*
X25580Y-40851D01*
X25618Y-40813D01*
X25694Y-40775D01*
X26303Y-41499D02*
X26342Y-41537D01*
X26303Y-41575D01*
X26265Y-41537D01*
X26303Y-41499D01*
X26303Y-41575D01*
X26799Y-41118D02*
X26723Y-41080D01*
X26684Y-41041D01*
X26646Y-40965D01*
X26646Y-40927D01*
X26684Y-40851D01*
X26723Y-40813D01*
X26799Y-40775D01*
X26951Y-40775D01*
X27027Y-40813D01*
X27065Y-40851D01*
X27104Y-40927D01*
X27104Y-40965D01*
X27065Y-41041D01*
X27027Y-41080D01*
X26951Y-41118D01*
X26799Y-41118D01*
X26723Y-41156D01*
X26684Y-41194D01*
X26646Y-41270D01*
X26646Y-41422D01*
X26684Y-41499D01*
X26723Y-41537D01*
X26799Y-41575D01*
X26951Y-41575D01*
X27027Y-41537D01*
X27065Y-41499D01*
X27104Y-41422D01*
X27104Y-41270D01*
X27065Y-41194D01*
X27027Y-41156D01*
X26951Y-41118D01*
X27866Y-41575D02*
X27408Y-41575D01*
X27637Y-41575D02*
X27637Y-40775D01*
X27561Y-40889D01*
X27485Y-40965D01*
X27408Y-41003D01*
X28208Y-41575D02*
X28208Y-41041D01*
X28208Y-41118D02*
X28247Y-41080D01*
X28323Y-41041D01*
X28437Y-41041D01*
X28513Y-41080D01*
X28551Y-41156D01*
X28551Y-41575D01*
X28551Y-41156D02*
X28589Y-41080D01*
X28666Y-41041D01*
X28780Y-41041D01*
X28856Y-41080D01*
X28894Y-41156D01*
X28894Y-41575D01*
X29275Y-41575D02*
X29275Y-41041D01*
X29275Y-41118D02*
X29314Y-41080D01*
X29390Y-41041D01*
X29504Y-41041D01*
X29580Y-41080D01*
X29618Y-41156D01*
X29618Y-41575D01*
X29618Y-41156D02*
X29656Y-41080D01*
X29733Y-41041D01*
X29847Y-41041D01*
X29923Y-41080D01*
X29961Y-41156D01*
X29961Y-41575D01*
X31524Y-40737D02*
X30838Y-41765D01*
X32553Y-40775D02*
X32629Y-40775D01*
X32705Y-40813D01*
X32743Y-40851D01*
X32781Y-40927D01*
X32820Y-41080D01*
X32820Y-41270D01*
X32781Y-41422D01*
X32743Y-41499D01*
X32705Y-41537D01*
X32629Y-41575D01*
X32553Y-41575D01*
X32477Y-41537D01*
X32439Y-41499D01*
X32400Y-41422D01*
X32362Y-41270D01*
X32362Y-41080D01*
X32400Y-40927D01*
X32439Y-40851D01*
X32477Y-40813D01*
X32553Y-40775D01*
X33162Y-41499D02*
X33201Y-41537D01*
X33162Y-41575D01*
X33124Y-41537D01*
X33162Y-41499D01*
X33162Y-41575D01*
X33696Y-40775D02*
X33772Y-40775D01*
X33848Y-40813D01*
X33886Y-40851D01*
X33924Y-40927D01*
X33963Y-41080D01*
X33963Y-41270D01*
X33924Y-41422D01*
X33886Y-41499D01*
X33848Y-41537D01*
X33772Y-41575D01*
X33696Y-41575D01*
X33620Y-41537D01*
X33582Y-41499D01*
X33543Y-41422D01*
X33505Y-41270D01*
X33505Y-41080D01*
X33543Y-40927D01*
X33582Y-40851D01*
X33620Y-40813D01*
X33696Y-40775D01*
X34229Y-40775D02*
X34725Y-40775D01*
X34458Y-41080D01*
X34572Y-41080D01*
X34648Y-41118D01*
X34686Y-41156D01*
X34725Y-41232D01*
X34725Y-41422D01*
X34686Y-41499D01*
X34648Y-41537D01*
X34572Y-41575D01*
X34344Y-41575D01*
X34267Y-41537D01*
X34229Y-41499D01*
X35029Y-40851D02*
X35067Y-40813D01*
X35144Y-40775D01*
X35334Y-40775D01*
X35410Y-40813D01*
X35448Y-40851D01*
X35487Y-40927D01*
X35487Y-41003D01*
X35448Y-41118D01*
X34991Y-41575D01*
X35487Y-41575D01*
X35791Y-40775D02*
X35791Y-40927D01*
X36096Y-40775D02*
X36096Y-40927D01*
X37278Y-41880D02*
X37240Y-41841D01*
X37164Y-41727D01*
X37126Y-41651D01*
X37088Y-41537D01*
X37049Y-41346D01*
X37049Y-41194D01*
X37088Y-41003D01*
X37126Y-40889D01*
X37164Y-40813D01*
X37240Y-40699D01*
X37278Y-40661D01*
X38002Y-41575D02*
X37544Y-41575D01*
X37773Y-41575D02*
X37773Y-40775D01*
X37697Y-40889D01*
X37621Y-40965D01*
X37544Y-41003D01*
X38764Y-41575D02*
X38306Y-41575D01*
X38535Y-41575D02*
X38535Y-40775D01*
X38459Y-40889D01*
X38383Y-40965D01*
X38306Y-41003D01*
X39716Y-41575D02*
X39716Y-40775D01*
X40059Y-41575D02*
X40059Y-41156D01*
X40021Y-41080D01*
X39945Y-41041D01*
X39831Y-41041D01*
X39755Y-41080D01*
X39716Y-41118D01*
X40555Y-41575D02*
X40479Y-41537D01*
X40440Y-41499D01*
X40402Y-41422D01*
X40402Y-41194D01*
X40440Y-41118D01*
X40479Y-41080D01*
X40555Y-41041D01*
X40669Y-41041D01*
X40745Y-41080D01*
X40783Y-41118D01*
X40821Y-41194D01*
X40821Y-41422D01*
X40783Y-41499D01*
X40745Y-41537D01*
X40669Y-41575D01*
X40555Y-41575D01*
X41279Y-41575D02*
X41203Y-41537D01*
X41164Y-41461D01*
X41164Y-40775D01*
X41888Y-41537D02*
X41812Y-41575D01*
X41660Y-41575D01*
X41583Y-41537D01*
X41545Y-41461D01*
X41545Y-41156D01*
X41583Y-41080D01*
X41660Y-41041D01*
X41812Y-41041D01*
X41888Y-41080D01*
X41926Y-41156D01*
X41926Y-41232D01*
X41545Y-41308D01*
X42231Y-41537D02*
X42308Y-41575D01*
X42460Y-41575D01*
X42536Y-41537D01*
X42574Y-41461D01*
X42574Y-41422D01*
X42536Y-41346D01*
X42460Y-41308D01*
X42346Y-41308D01*
X42269Y-41270D01*
X42231Y-41194D01*
X42231Y-41156D01*
X42269Y-41080D01*
X42346Y-41041D01*
X42460Y-41041D01*
X42536Y-41080D01*
X42841Y-41880D02*
X42879Y-41841D01*
X42956Y-41727D01*
X42994Y-41651D01*
X43032Y-41537D01*
X43070Y-41346D01*
X43070Y-41194D01*
X43032Y-41003D01*
X42994Y-40889D01*
X42956Y-40813D01*
X42879Y-40699D01*
X42841Y-40661D01*
X24951Y-42106D02*
X24951Y-42506D01*
X25151Y-42306D02*
X24751Y-42306D01*
X25961Y-42630D02*
X25503Y-42630D01*
X25732Y-42630D02*
X25732Y-41830D01*
X25656Y-41944D01*
X25580Y-42020D01*
X25503Y-42058D01*
X26303Y-42554D02*
X26342Y-42592D01*
X26303Y-42630D01*
X26265Y-42592D01*
X26303Y-42554D01*
X26303Y-42630D01*
X26837Y-41830D02*
X26913Y-41830D01*
X26989Y-41868D01*
X27027Y-41906D01*
X27065Y-41982D01*
X27104Y-42135D01*
X27104Y-42325D01*
X27065Y-42477D01*
X27027Y-42554D01*
X26989Y-42592D01*
X26913Y-42630D01*
X26837Y-42630D01*
X26761Y-42592D01*
X26723Y-42554D01*
X26684Y-42477D01*
X26646Y-42325D01*
X26646Y-42135D01*
X26684Y-41982D01*
X26723Y-41906D01*
X26761Y-41868D01*
X26837Y-41830D01*
X27408Y-41906D02*
X27446Y-41868D01*
X27523Y-41830D01*
X27713Y-41830D01*
X27789Y-41868D01*
X27827Y-41906D01*
X27866Y-41982D01*
X27866Y-42058D01*
X27827Y-42173D01*
X27370Y-42630D01*
X27866Y-42630D01*
X28208Y-42630D02*
X28208Y-42096D01*
X28208Y-42173D02*
X28247Y-42135D01*
X28323Y-42096D01*
X28437Y-42096D01*
X28513Y-42135D01*
X28551Y-42211D01*
X28551Y-42630D01*
X28551Y-42211D02*
X28589Y-42135D01*
X28666Y-42096D01*
X28780Y-42096D01*
X28856Y-42135D01*
X28894Y-42211D01*
X28894Y-42630D01*
X29275Y-42630D02*
X29275Y-42096D01*
X29275Y-42173D02*
X29314Y-42135D01*
X29390Y-42096D01*
X29504Y-42096D01*
X29580Y-42135D01*
X29618Y-42211D01*
X29618Y-42630D01*
X29618Y-42211D02*
X29656Y-42135D01*
X29733Y-42096D01*
X29847Y-42096D01*
X29923Y-42135D01*
X29961Y-42211D01*
X29961Y-42630D01*
X31524Y-41792D02*
X30838Y-42820D01*
X32553Y-41830D02*
X32629Y-41830D01*
X32705Y-41868D01*
X32743Y-41906D01*
X32781Y-41982D01*
X32820Y-42135D01*
X32820Y-42325D01*
X32781Y-42477D01*
X32743Y-42554D01*
X32705Y-42592D01*
X32629Y-42630D01*
X32553Y-42630D01*
X32477Y-42592D01*
X32439Y-42554D01*
X32400Y-42477D01*
X32362Y-42325D01*
X32362Y-42135D01*
X32400Y-41982D01*
X32439Y-41906D01*
X32477Y-41868D01*
X32553Y-41830D01*
X33162Y-42554D02*
X33201Y-42592D01*
X33162Y-42630D01*
X33124Y-42592D01*
X33162Y-42554D01*
X33162Y-42630D01*
X33696Y-41830D02*
X33772Y-41830D01*
X33848Y-41868D01*
X33886Y-41906D01*
X33924Y-41982D01*
X33963Y-42135D01*
X33963Y-42325D01*
X33924Y-42477D01*
X33886Y-42554D01*
X33848Y-42592D01*
X33772Y-42630D01*
X33696Y-42630D01*
X33620Y-42592D01*
X33582Y-42554D01*
X33543Y-42477D01*
X33505Y-42325D01*
X33505Y-42135D01*
X33543Y-41982D01*
X33582Y-41906D01*
X33620Y-41868D01*
X33696Y-41830D01*
X34648Y-42096D02*
X34648Y-42630D01*
X34458Y-41792D02*
X34267Y-42363D01*
X34763Y-42363D01*
X35220Y-41830D02*
X35296Y-41830D01*
X35372Y-41868D01*
X35410Y-41906D01*
X35448Y-41982D01*
X35487Y-42135D01*
X35487Y-42325D01*
X35448Y-42477D01*
X35410Y-42554D01*
X35372Y-42592D01*
X35296Y-42630D01*
X35220Y-42630D01*
X35144Y-42592D01*
X35106Y-42554D01*
X35067Y-42477D01*
X35029Y-42325D01*
X35029Y-42135D01*
X35067Y-41982D01*
X35106Y-41906D01*
X35144Y-41868D01*
X35220Y-41830D01*
X35791Y-41830D02*
X35791Y-41982D01*
X36096Y-41830D02*
X36096Y-41982D01*
X37278Y-42935D02*
X37240Y-42896D01*
X37164Y-42782D01*
X37126Y-42706D01*
X37088Y-42592D01*
X37049Y-42401D01*
X37049Y-42249D01*
X37088Y-42058D01*
X37126Y-41944D01*
X37164Y-41868D01*
X37240Y-41754D01*
X37278Y-41716D01*
X37544Y-41906D02*
X37582Y-41868D01*
X37659Y-41830D01*
X37849Y-41830D01*
X37925Y-41868D01*
X37963Y-41906D01*
X38002Y-41982D01*
X38002Y-42058D01*
X37963Y-42173D01*
X37506Y-42630D01*
X38002Y-42630D01*
X38459Y-42173D02*
X38383Y-42135D01*
X38344Y-42096D01*
X38306Y-42020D01*
X38306Y-41982D01*
X38344Y-41906D01*
X38383Y-41868D01*
X38459Y-41830D01*
X38611Y-41830D01*
X38687Y-41868D01*
X38725Y-41906D01*
X38764Y-41982D01*
X38764Y-42020D01*
X38725Y-42096D01*
X38687Y-42135D01*
X38611Y-42173D01*
X38459Y-42173D01*
X38383Y-42211D01*
X38344Y-42249D01*
X38306Y-42325D01*
X38306Y-42477D01*
X38344Y-42554D01*
X38383Y-42592D01*
X38459Y-42630D01*
X38611Y-42630D01*
X38687Y-42592D01*
X38725Y-42554D01*
X38764Y-42477D01*
X38764Y-42325D01*
X38725Y-42249D01*
X38687Y-42211D01*
X38611Y-42173D01*
X39716Y-42630D02*
X39716Y-41830D01*
X40059Y-42630D02*
X40059Y-42211D01*
X40021Y-42135D01*
X39945Y-42096D01*
X39831Y-42096D01*
X39755Y-42135D01*
X39716Y-42173D01*
X40555Y-42630D02*
X40479Y-42592D01*
X40440Y-42554D01*
X40402Y-42477D01*
X40402Y-42249D01*
X40440Y-42173D01*
X40479Y-42135D01*
X40555Y-42096D01*
X40669Y-42096D01*
X40745Y-42135D01*
X40783Y-42173D01*
X40821Y-42249D01*
X40821Y-42477D01*
X40783Y-42554D01*
X40745Y-42592D01*
X40669Y-42630D01*
X40555Y-42630D01*
X41279Y-42630D02*
X41203Y-42592D01*
X41164Y-42516D01*
X41164Y-41830D01*
X41888Y-42592D02*
X41812Y-42630D01*
X41660Y-42630D01*
X41583Y-42592D01*
X41545Y-42516D01*
X41545Y-42211D01*
X41583Y-42135D01*
X41660Y-42096D01*
X41812Y-42096D01*
X41888Y-42135D01*
X41926Y-42211D01*
X41926Y-42287D01*
X41545Y-42363D01*
X42231Y-42592D02*
X42308Y-42630D01*
X42460Y-42630D01*
X42536Y-42592D01*
X42574Y-42516D01*
X42574Y-42477D01*
X42536Y-42401D01*
X42460Y-42363D01*
X42346Y-42363D01*
X42269Y-42325D01*
X42231Y-42249D01*
X42231Y-42211D01*
X42269Y-42135D01*
X42346Y-42096D01*
X42460Y-42096D01*
X42536Y-42135D01*
X42841Y-42935D02*
X42879Y-42896D01*
X42956Y-42782D01*
X42994Y-42706D01*
X43032Y-42592D01*
X43070Y-42401D01*
X43070Y-42249D01*
X43032Y-42058D01*
X42994Y-41944D01*
X42956Y-41868D01*
X42879Y-41754D01*
X42841Y-41716D01*
M02*
