G04 (created by PCBNEW-RS274X (2010-05-05 BZR 2356)-stable) date 29/03/2011 14:52:02*
G01*
G70*
G90*
%MOIN*%
G04 Gerber Fmt 3.4, Leading zero omitted, Abs format*
%FSLAX34Y34*%
G04 APERTURE LIST*
%ADD10C,0.006000*%
%ADD11C,0.015000*%
%ADD12R,0.130000X0.050000*%
%ADD13R,0.050000X0.074000*%
%ADD14R,0.055100X0.055100*%
%ADD15R,0.038000X0.050000*%
%ADD16R,0.047200X0.047200*%
%ADD17R,0.055000X0.035000*%
%ADD18R,0.035000X0.055000*%
%ADD19R,0.011800X0.031500*%
%ADD20R,0.216500X0.110200*%
G04 APERTURE END LIST*
G54D10*
G54D11*
X25550Y-22360D02*
X25600Y-22360D01*
X25550Y-37560D02*
X25550Y-22360D01*
X42400Y-37560D02*
X25550Y-37560D01*
X42400Y-22360D02*
X42400Y-37560D01*
X25500Y-22360D02*
X42400Y-22360D01*
G54D12*
X29120Y-24020D03*
X31120Y-24020D03*
G54D13*
X36380Y-23640D03*
X34180Y-23640D03*
X34180Y-24840D03*
X36380Y-24840D03*
G54D14*
X38378Y-33440D03*
X36882Y-33440D03*
G54D15*
X26950Y-23720D03*
X26450Y-23720D03*
X33690Y-25850D03*
X34190Y-25850D03*
X34690Y-25850D03*
G54D16*
X39097Y-30380D03*
X39923Y-30380D03*
X39933Y-31390D03*
X39107Y-31390D03*
X39973Y-27260D03*
X39147Y-27260D03*
X39147Y-28280D03*
X39973Y-28280D03*
G54D17*
X37400Y-29555D03*
X37400Y-30305D03*
G54D18*
X39135Y-29310D03*
X39885Y-29310D03*
G54D17*
X30875Y-30275D03*
X30875Y-31025D03*
X29225Y-30250D03*
X29225Y-31000D03*
X30075Y-30250D03*
X30075Y-31000D03*
G54D18*
X39095Y-26340D03*
X39845Y-26340D03*
X34535Y-26710D03*
X35285Y-26710D03*
X39105Y-32320D03*
X39855Y-32320D03*
X31295Y-28750D03*
X30545Y-28750D03*
X32785Y-27280D03*
X32035Y-27280D03*
X39125Y-34520D03*
X38375Y-34520D03*
G54D17*
X33130Y-24095D03*
X33130Y-24845D03*
X37410Y-24405D03*
X37410Y-23655D03*
G54D14*
X30480Y-27878D03*
X30480Y-26382D03*
X38378Y-35610D03*
X36882Y-35610D03*
X31310Y-26392D03*
X31310Y-27888D03*
G54D19*
X35673Y-28818D03*
X35417Y-28818D03*
X35161Y-28818D03*
X34905Y-28818D03*
X34650Y-28818D03*
X34394Y-28818D03*
X34138Y-28818D03*
X33882Y-28818D03*
X33626Y-28818D03*
X33370Y-28818D03*
X33114Y-28818D03*
X32858Y-28818D03*
X32602Y-28818D03*
X32346Y-28818D03*
X32346Y-31102D03*
X32602Y-31102D03*
X32858Y-31102D03*
X33114Y-31102D03*
X33370Y-31102D03*
X33626Y-31102D03*
X33882Y-31102D03*
X34138Y-31102D03*
X34394Y-31102D03*
X34650Y-31102D03*
X34905Y-31102D03*
X35161Y-31102D03*
X35417Y-31102D03*
X35673Y-31102D03*
G54D20*
X34000Y-30000D03*
M02*
