M48
;DRILL file {PCBnew (2010-05-05 BZR 2356)-stable} date 29/03/2011 14:53:00
;FORMAT={-.-/ absolute / metric / decimal}
R,T
VER,1
FMAT,2
METRIC,TZ
TCST,OFF
ICI,OFF
ATC,ON
T1C0.635
T2C0.813
T3C1.016
%
M47
G05
M71
T1
X70.739Y-60.173
X75.019Y-80.112
X75.717Y-73.050
X76.479Y-86.055
X77.648Y-83.058
X77.724Y-81.204
X79.096Y-84.201
X79.223Y-80.010
X79.324Y-87.833
X80.569Y-79.070
X81.026Y-80.315
X81.051Y-73.228
X81.966Y-71.450
X82.118Y-61.087
X83.464Y-71.577
X83.693Y-82.144
X83.972Y-65.659
X84.912Y-68.275
X85.014Y-85.141
X86.360Y-76.200
X87.097Y-84.252
X87.630Y-83.134
X88.138Y-69.418
X88.519Y-85.776
X89.916Y-81.991
X90.297Y-70.612
X91.059Y-81.712
X91.186Y-67.869
X92.735Y-71.831
X92.964Y-73.355
X93.167Y-78.994
X101.930Y-87.706
T2
X86.081Y-87.884
X86.081Y-93.116
X88.621Y-87.884
X88.621Y-93.116
X91.161Y-87.884
X91.161Y-93.116
X93.701Y-87.884
X93.701Y-93.116
X98.019Y-62.179
X100.559Y-59.639
X100.559Y-64.719
T3
X67.234Y-64.033
X67.234Y-66.573
X67.234Y-69.113
X67.247Y-74.930
X67.247Y-77.470
X67.247Y-80.010
X67.247Y-82.550
X67.247Y-85.090
X67.247Y-87.630
X67.247Y-90.170
X67.247Y-92.710
X69.774Y-64.033
X69.774Y-66.573
X69.774Y-69.113
X69.787Y-74.930
X69.787Y-77.470
X69.787Y-80.010
X69.787Y-82.550
X69.787Y-85.090
X69.787Y-87.630
X69.787Y-90.170
X69.787Y-92.710
X104.572Y-78.867
X104.572Y-81.407
X104.623Y-70.510
X104.623Y-73.050
X104.978Y-62.636
X104.978Y-65.176
T0
M30
